<?xml version="1.0" encoding="utf-8" ?><svg xmlns="http://www.w3.org/2000/svg" xmlns:xlink="http://www.w3.org/1999/xlink" width="390" height="382" viewBox="0 0 390 382"><clipPath id="cl_6"><rect width="390" height="382"/></clipPath><g clip-path="url(#cl_6)"><path fill="#FF7502" transform="translate(-63 -844)" d="M152.314 927.203C196.085 926.358 221.092 932.519 255.769 960.163C285.715 935.621 315.026 925.221 353.956 927.189C367.382 927.868 374.215 932.018 373.145 946.367C388.332 946.131 398.694 946.632 399.31 964.992C399.686 976.205 399.616 987.336 399.617 998.561L399.603 1058.55L399.575 1098.27C399.545 1123.81 402.222 1135.67 370.953 1134.54C363.747 1134.28 354.595 1134.53 347.32 1134.55L347.344 1142.81C347.458 1147.47 348.546 1151.38 344.724 1154.38C340.192 1154.64 332.239 1146.46 328.254 1143.02C324.252 1146.25 315.661 1155.62 310.765 1154.26C307.779 1150.32 308.845 1140.78 309.002 1135.61C301.195 1137.06 293.542 1139 286.421 1142.61C277.706 1147.02 267.734 1157.69 257.764 1158.15C242.604 1158.84 230.669 1143.3 216.129 1138.52C207.77 1135.77 198.031 1134.75 189.258 1134.37C176.446 1133.81 125.556 1137.12 118.197 1130.11C113.997 1126.11 113.25 1120.66 113.129 1115.17C112.437 1083.7 113.045 1052.08 112.982 1020.59C112.945 1002.15 111.554 978.693 113.481 960.796C113.914 956.775 114.314 953.273 117.378 950.297C122.58 945.244 130.776 945.84 137.454 945.873C137.822 934.529 140.342 928.969 152.314 927.203ZM261.132 970.256C260.938 1019.27 262.066 1071.21 260.95 1119.86C267.424 1115.33 274.304 1111.41 281.501 1108.16C313.096 1094.58 328.708 1093.63 362.083 1092.79C361.964 1075.88 363.27 944.213 360.865 941.424C357.763 937.827 349.945 938.19 345.667 938.291C343.339 938.353 341.012 938.447 338.686 938.572C305.334 941.292 286.753 948.885 261.132 970.256ZM149.586 1093.03C179.903 1093.1 202.611 1093.19 230.785 1107.64C233.048 1108.8 240.227 1112.53 241.923 1113.93L249.777 1118.59C250.374 1069.68 248.705 1018.26 250.066 969.836C226.165 949.099 190.664 935.222 158.726 938.565C155.914 938.912 152.275 939.229 149.603 939.943C147.975 962.533 149.069 997.744 149.085 1021C149.099 1041.07 148.043 1074.62 149.586 1093.03ZM373.532 957.242L373.52 1046.75C373.527 1062.52 373.769 1078.3 373.068 1094.05C372.495 1106.9 356.625 1104.19 347.433 1104.04C347.394 1110.31 347.229 1117.06 347.365 1123.29C351.733 1123.22 356.276 1123.08 360.63 1123.15C366.345 1123.19 381.223 1124.24 386.023 1120.9C388.418 1119.23 387.908 1107.68 388.09 1104.53C388.01 1058.93 387.868 1013.37 388.044 967.775C388.086 956.905 382.615 956.718 373.532 957.242ZM308.983 1110.13C296.327 1113.08 284.221 1118.03 273.115 1124.77C268.305 1127.63 260.64 1132.76 255.789 1134.98C233.103 1121.66 204.495 1103.32 177.365 1104.05C131.312 1105.29 137.46 1105.39 137.534 1059.85L137.623 994.465C137.627 982.823 138.008 968.477 137.331 957.005L128.347 957.14C126.895 958.151 124.823 959.371 124.666 961.157C124.1 967.569 124.243 974.537 124.25 980.94L124.383 1020.08C124.427 1032.27 123.312 1116.37 125.796 1121C131.815 1125.53 205.766 1120.08 219.434 1127.89C221.353 1128.99 228.701 1131.57 232.508 1133.92C238.579 1137.67 250.983 1148.08 257.664 1146.89C262.38 1146.05 273.851 1137.1 278.749 1134.44C284.164 1131.5 289.592 1129.36 295.558 1127.54C299.185 1126.43 307.312 1126.19 309.185 1123.47C308.915 1118.64 308.855 1114.97 308.983 1110.13Z"/><path fill="#FF7502" transform="translate(-63 -844)" d="M330.924 974.589C334.567 973.414 339.381 973.729 342.263 976.427C343.101 979.386 343.077 978.131 342.236 981.201C339.212 984.803 327.172 985.45 322.23 986.334C310.411 988.399 298.954 992.17 288.218 997.528C284.585 999.375 278.785 1000.29 278.258 994.924C283.334 983.121 318.736 975.446 330.924 974.589Z"/><path fill="#FF7502" transform="translate(-63 -844)" d="M332.246 1048.03C335.439 1047.86 337.918 1047.45 340.868 1048.67C342.818 1050.71 342.274 1049.7 342.834 1052.58C340.603 1059.09 327.622 1059.08 321.167 1060.28C309.56 1062.37 298.339 1066.21 287.895 1071.68C283.968 1073.36 280.086 1074.01 278.032 1069.34C280.801 1056.89 321.024 1049.42 332.246 1048.03Z"/><path fill="#FF7502" transform="translate(-63 -844)" d="M328.39 998.535C332.53 997.607 338.849 997.327 342.212 1000.09C343.255 1002.94 343.222 1001.76 342.439 1004.58C338.835 1008.62 327.093 1008.97 321.169 1010.11C310.282 1012.21 301.641 1015.38 291.419 1019.56C287.58 1021.45 281.562 1024.03 277.757 1020.55C277.414 1008.54 318.606 999.629 328.39 998.535Z"/><path fill="#FF7502" transform="translate(-63 -844)" d="M328.973 1023.31C332.348 1022.41 338.724 1022.34 341.695 1024.42C342.956 1026.84 342.777 1025.77 342.424 1028.42C338.888 1033.89 324.987 1034.06 318.536 1035.4C308.618 1037.46 300.819 1040.2 291.477 1044.03C287.199 1046.28 282.43 1048.64 277.777 1045.43L277.498 1043.91C281.575 1031.83 317.318 1024.68 328.973 1023.31Z"/><path fill="#FF7502" transform="translate(-63 -844)" d="M172.889 973.529C184.518 973.303 231.307 981.792 233.745 994.427C233.38 997.073 232.872 997.28 230.89 999.315C227.133 999.06 207.867 989.503 200.988 987.882C192.086 985.786 182.241 985.037 173.601 982.561C171.677 982.01 171.052 980.292 170.372 978.704C170.64 976.011 171.106 975.756 172.889 973.529Z"/><path fill="#FF7502" transform="translate(-63 -844)" d="M176.705 1047.1C191.772 1048.39 219.778 1055.16 232.396 1065.08C234.407 1066.66 234.041 1068.87 233.544 1071.05C232.032 1072.86 231.713 1072.92 229.398 1073.47C214.323 1066.97 199.854 1060.01 183.237 1058.32C178.341 1057.82 171.885 1057.51 170.146 1052.35C171.298 1048.25 173.168 1048.11 176.705 1047.1Z"/><path fill="#FF7502" transform="translate(-63 -844)" d="M172.905 1022.28C184.276 1021.92 231.663 1031.17 233.979 1043.16C233.574 1045.83 233.08 1046.08 231.225 1048.23C225.372 1046.87 213.211 1040.41 206.275 1038.44C195.822 1035.47 186.341 1034.19 175.825 1031.84C172.536 1031.11 172.001 1030.51 170.593 1028.07C170.596 1025.37 171.449 1024.47 172.905 1022.28Z"/><path fill="#FF7502" transform="translate(-63 -844)" d="M172.909 997.52C184.488 997.061 229.812 1006.2 233.496 1017.73C233.047 1020.81 233.272 1019.75 230.96 1022.7C222.317 1022.28 198.96 1009.2 187.429 1008.94C182.165 1008.83 172.501 1008.1 170.388 1003.05C170.467 1000.23 171.115 999.803 172.909 997.52Z"/></g></svg>