<?xml version="1.0" encoding="utf-8" ?><svg xmlns="http://www.w3.org/2000/svg" xmlns:xlink="http://www.w3.org/1999/xlink" width="443" height="431" viewBox="0 0 443 431"><clipPath id="cl_5"><rect width="443" height="431"/></clipPath><g clip-path="url(#cl_5)"><defs><linearGradient id="gradient_0" gradientUnits="userSpaceOnUse" x1="686.18719" y1="472.62073" x2="882.29681" y2="340.44598"><stop offset="0" stop-color="#4E99FF"/><stop offset="1" stop-color="#54D9FD"/></linearGradient></defs><path fill="#FF7502" transform="translate(-581 -217)" d="M834.844 309.375C836.253 309.222 837.666 309.117 839.082 309.061C870.822 307.854 882.508 331.148 882.195 359.614C882.016 375.874 882.488 393.462 882.07 409.48C881.53 430.176 886.902 466.109 871.621 481.832C866.969 486.638 861.134 490.135 854.701 491.971C841.644 495.644 793.061 493.938 775.98 494.302C764.432 505.616 742.527 527.91 727.818 532.166C716.829 527.366 720.123 505.046 720.339 494.525C710.471 493.751 702.481 492.305 694.566 485.942C685.226 478.434 682.375 463.554 681.458 452.118C680.321 437.935 680.854 421.876 681.037 407.389C681.246 390.879 679.205 369.725 682.61 353.809C683.85 347.737 686.634 342.087 690.695 337.405C706.903 318.588 751.919 318.894 775.701 315.751C794.411 313.279 816.216 310.756 834.844 309.375ZM733.003 510.937L733.291 514.015L734.277 514.567C746.276 507.096 760.325 490.48 772.438 481.993C788.769 480.827 805.626 482.002 821.988 481.617C835.479 481.3 854.822 483.83 864.586 472.437C867.389 469.151 869.238 465.16 869.931 460.897C871.52 451.665 871.182 440.146 871.067 430.71C870.754 404.993 871.642 379.183 870.324 353.504C869.27 332.964 860.473 319.177 838.227 321.274L766.081 329.186C747.79 331.244 728.474 332.711 710.797 337.902C701.76 340.557 695.049 349.836 694.004 359.093C692.315 374.059 693.45 389.419 693.159 404.465C693.156 421.57 692.705 439.02 693.661 456.042C694.114 464.095 698.015 472.449 704.421 477.79C715.937 487.392 729.919 472.078 732.779 492.585C733.481 497.621 733.079 505.776 733.003 510.937Z"/><path fill="#FF7502" transform="translate(-581 -217)" d="M778.465 356.436C779.549 356.353 780.635 356.296 781.722 356.264C789.708 355.988 797.312 357.93 803.24 363.558C807.928 367.957 810.649 374.058 810.788 380.486C811.157 396.377 799.772 401.863 790.704 411.463C788.88 413.393 787.614 422.678 783.422 427.032C781.73 427.706 780.564 428.348 778.879 427.246C769.946 421.403 774.641 411.559 778.239 405.474C784.947 396.851 809.509 383.463 790.854 370.264C777.569 360.864 768.619 385.065 759.639 386.74C757.924 386.098 757.188 385.969 756.5 384.056C750.88 368.451 766.783 360.188 778.465 356.436Z"/><path fill="#FF7502" transform="translate(-581 -217)" d="M778.568 435.442C783.464 434.059 788.572 436.821 790.094 441.675C791.616 446.528 789 451.712 784.191 453.371C780.956 454.488 777.369 453.758 774.827 451.467C772.286 449.175 771.191 445.683 771.968 442.351C772.746 439.019 775.274 436.373 778.568 435.442Z"/><path fill="#FF7502" transform="translate(-581 -217)" d="M894.461 368.3C902.519 368.096 911.22 369.553 918.28 373.602C924.715 377.293 929.313 382.711 931.228 389.899C934.242 401.216 934.295 486.669 932.77 500.94C932.27 505.622 931.369 510.421 928.926 514.503C923.944 522.825 916.463 527.054 907.271 529.365C908.092 541.68 910.446 564.247 890.381 551.575C880.353 545.241 872.267 536.02 862.657 529.475L861.951 529C836.968 527.242 817.608 534.618 798.197 517.873C794.729 513.736 790.326 507.825 794.044 502.558C799.066 499.732 802.592 502.446 805.98 506.07C821.383 522.548 843.921 516.817 865.014 516.774C873.861 522.542 887.02 533.532 895.835 540.475C895.914 533.204 896.092 526.713 896.548 519.46C903.188 517.194 912.335 516.362 917.332 511.392C921.17 507.575 921.894 495.907 921.929 490.737C922.059 471.864 922.094 453.026 922.01 434.14C921.679 422.097 922.578 409.064 921.031 397.195C919.35 384.292 912.102 383.387 901.413 381.429C897.326 380.68 889.912 378.936 890.652 373.801C890.976 371.552 892.853 369.755 894.461 368.3Z"/></g></svg>