<?xml version="1.0" encoding="utf-8" ?><svg xmlns="http://www.w3.org/2000/svg" xmlns:xlink="http://www.w3.org/1999/xlink" width="1333" height="1180" viewBox="0 0 1333 1180"><path fill="white" d="M0 0L1333 0L1333 1180L0 1180L0 0Z"/><path fill="#041613" d="M96.0315 28.7756C107.319 28.2399 120.299 28.5374 131.678 28.5451L190.399 28.5718L374.166 28.5605L525.02 28.6059L572.521 28.5241C587.184 28.4922 604.79 26.4169 617.515 34.3765C626.089 39.839 632.18 48.4452 634.48 58.3478C636.15 65.8554 635.456 100.755 635.427 110.865L635.4 215.93L635.535 439.237L635.539 511.16C635.54 523.809 635.657 536.426 635.379 549.074C634.952 568.437 622.283 582.549 603.531 586.428C596.075 587.25 584.907 586.95 577.189 586.947L533.068 586.916L391.758 586.916L195.824 586.9L134.417 586.954C117.921 586.995 93.1663 589.668 79.5589 580.504C71.0867 574.827 65.2438 565.991 63.3371 555.972C61.8734 547.872 62.5543 511.028 62.5648 501.181L62.5673 384.938L62.5645 173.036L62.5401 103.824C62.5357 91.3228 62.4054 78.8696 62.7518 66.3697C63.3139 46.0834 76.427 32.379 96.0315 28.7756Z"/><path fill="white" d="M341.351 127.202C365.043 126.407 387.515 133.296 408.122 144.694C419.383 150.923 415.018 161.659 405.009 156.963C401.116 155.136 396.274 151.373 391.982 149.371C373.827 141.025 353.802 137.582 333.902 139.386C304.469 142.177 277.348 156.538 258.499 179.314C238.808 203.147 229.524 233.894 232.735 264.641C236.262 294.913 251.579 322.576 275.365 341.631C298.422 360.053 327.895 368.477 357.205 365.025C386.397 361.536 413.017 346.623 431.238 323.552C450.722 298.624 459.237 268.798 455.32 237.405C454.069 222.124 447.604 209.898 442.323 196.048C441.477 193.827 444.535 190.381 447.208 190.033C448.829 189.816 450.468 190.285 451.729 191.327C453.979 193.221 455.358 197.571 456.593 200.327C462.788 214.164 466.241 227.498 467.301 242.686C469.837 276.396 458.797 309.721 436.635 335.249C415.136 359.97 384.646 375.071 351.952 377.192C319.306 379.178 287.215 368.062 262.793 346.306C237.839 323.887 222.766 292.507 220.866 259.015C219.196 225.429 230.857 192.541 253.312 167.507C276.94 141.531 306.687 128.98 341.351 127.202Z"/><path fill="white" d="M337.37 174.009C351.183 172.148 366.853 175.975 379.248 182.01C389.123 186.818 381.426 194.722 378.258 193.544C361.377 187.265 350.055 182.815 331.769 186.525C314.369 190.036 299.1 200.369 289.372 215.217C279.556 230.263 276.044 248.563 279.593 266.174C283.244 283.997 293.919 299.6 309.209 309.46C323.905 318.902 341.787 322.019 358.811 318.107C376.189 314.138 391.234 303.333 400.546 288.133C410.588 271.903 412.697 254.262 408.467 235.864C407.459 231.739 405.625 227.385 404.07 223.39L404.541 222.811C415.607 209.058 419.517 232.048 420.78 239.593C424.282 260.225 419.487 281.405 407.439 298.517C395.377 315.595 376.94 327.09 356.296 330.403C335.9 333.576 315.081 328.47 298.467 316.22C281.489 303.525 270.358 284.511 267.6 263.491C264.777 242.41 270.362 221.065 283.15 204.069C296.94 186.096 315.2 176.853 337.37 174.009Z"/><path fill="#00C5CE" d="M469.959 98.2463C479.407 98.7907 477.358 108.484 477.495 115.413C477.572 119.348 477.419 123.391 477.399 127.34C482.703 127.225 498.551 126.297 502.212 128.628C503.738 130.765 504.695 133.891 502.627 136.076C492.145 147.159 480.656 159.344 468.957 168.998C465.883 171.535 444.594 170.572 439.6 170.533C414.982 193.754 389.949 218.769 365.571 242.443C361.688 246.204 350.173 259.972 345.08 255.407C344.335 253.23 343.719 250.652 345.684 248.892C352.025 243.209 357.94 237.233 363.942 231.198L432.237 163.278C432.501 158.392 433.381 135.568 435.727 132.984C444.711 123.087 459.727 106.32 469.959 98.2463Z"/><path fill="#041613" d="M466.471 115.72L467.107 116.417C470.362 133.531 457.704 137.81 487.301 137.355L464.076 160.15L442.558 160.208C443.326 153.833 443.642 145.325 444.05 138.769C449.217 132.333 460.304 121.835 466.471 115.72Z"/><path fill="#00C5CE" d="M339.998 219.484C345.721 219.048 356.003 218.702 358.273 224.907C357.405 234.868 346.414 228.801 338.956 230.707C332.827 232.238 327.61 236.246 324.552 241.774C321.539 247.264 320.928 253.756 322.862 259.712C324.855 265.681 329.188 270.584 334.867 273.295C340.403 275.924 346.759 276.236 352.525 274.163C370.66 267.705 363.706 238.206 376.567 247.43C383.445 272.558 351.663 297.648 326.406 280.687C318.747 275.568 313.508 267.546 311.898 258.475C310.262 249.709 312.183 240.653 317.238 233.306C322.73 225.481 330.732 221.123 339.998 219.484Z"/><path fill="white" d="M294.396 436.827C297.851 436.637 300.788 436.623 304.041 438.009C308.221 439.83 311.452 443.312 312.956 447.616C316.985 458.829 311.892 469.093 300.45 472.369C276.991 473.991 274.269 442.652 294.396 436.827Z"/><defs><linearGradient id="gradient_0" gradientUnits="userSpaceOnUse" x1="303.9353" y1="449.27368" x2="290.49963" y2="459.34592"><stop offset="0" stop-color="#040A0A"/><stop offset="1" stop-color="#091C1A"/></linearGradient></defs><path fill="url(#gradient_0)" d="M294.796 443.92C308.754 443.009 309.402 459.363 300.236 465.459C286.523 466.227 285.597 449.776 294.796 443.92Z"/><path fill="white" d="M257.193 436.925C280.061 435.632 283.91 465.161 263.643 472.236C239.404 474.506 236.724 442.331 257.193 436.925Z"/><path fill="#041613" d="M257.029 443.918C271.141 443.164 271.883 458.386 263.437 465.277C262.414 465.41 261.384 465.475 260.352 465.473C250.243 465.451 248.552 450.548 257.029 443.918Z"/><path fill="white" d="M495.416 437.403C505.648 437.356 523 434.58 520.353 451.318C519.817 454.703 516.94 456.654 514.313 458.467C516.713 462.806 520.833 467.204 520.735 470.96C518.523 472.308 517.184 471.807 514.26 471.791C511.351 470.246 509.277 461.115 504.304 459.058L503.435 459.676C502.752 462.74 503.03 468.453 503.071 471.827C500.658 471.892 497.377 472.286 495.695 470.761C494.81 463.556 495.373 445.409 495.416 437.403Z"/><path fill="#050E0D" d="M502.98 444.239C503.935 444.223 504.89 444.219 505.846 444.228C508.617 444.26 510.127 444.17 512.103 446.186C513.088 448.642 512.76 449.165 512.219 451.906C509.352 453.257 506.372 454.164 503.745 452.24C502.477 449.844 502.905 447.074 502.98 444.239Z"/><path fill="white" d="M385.209 437.364C386.012 437.347 386.816 437.339 387.619 437.341C389.504 437.36 391.149 437.216 392.31 438.375C393.156 445.616 392.626 463.809 392.607 471.843L384.806 471.798L371.635 450.081C371.689 454.853 372.701 468.679 370.042 471.579C367.632 471.901 367.74 471.909 365.372 471.368C363.489 468.613 364.401 441.871 364.42 437.42L372.443 437.383C376.604 444.52 380.879 451.59 385.268 458.589L385.209 437.364Z"/><path fill="white" d="M412.249 436.863C420.738 436.319 423.731 437.916 428.828 444.324C428.433 444.597 425.521 446.618 425.166 446.743C419.657 448.68 416.944 441.269 409.831 444.815C406.105 448.847 405.432 458.852 409.047 462.846C410.639 464.603 412.892 465.619 415.264 465.648C418.027 465.696 422.506 464.618 422.394 461.222C418.94 457.897 414.943 459.834 414.213 455.173C414.826 453.79 414.824 453.862 415.872 452.752L429.057 452.707L429.062 467.558C400.195 487.137 386.213 443.592 412.249 436.863Z"/><path fill="white" d="M229.981 451.051C230.044 446.492 228.685 441.612 230.748 438.275C232.77 436.874 234.996 437.342 237.609 437.432L237.567 471.785L229.875 471.779L229.872 457.672L216.609 457.601L216.564 471.849C215.667 471.869 214.769 471.879 213.872 471.879C212.046 471.865 210.271 471.998 209.12 470.855C208.232 463.315 208.799 445.718 208.843 437.443L216.538 437.454L216.558 450.969L229.981 451.051Z"/><path fill="white" d="M187.679 436.82C195.394 436.622 196.982 437.282 202.525 442.497C194.22 450.833 192.823 441.57 187.346 443.588C186.136 445.255 185.849 445.318 185.834 447.386C189.287 453.231 201.879 450.653 202.84 458.387C204.166 469.047 198.011 471.455 189.843 472.618C182.637 471.666 180.767 470.996 176.117 465.823L181.581 461.237C184.938 464.743 191.141 468.094 195.277 464.151C195.913 455.544 179.073 457.951 177.691 450.419C176.271 442.678 180.756 438.964 187.679 436.82Z"/><path fill="white" d="M447.915 437.432C452.332 437.386 471.197 436.824 474.428 437.904C475.292 439.9 474.912 442.189 474.792 444.418L465.294 444.45L465.32 461.293L465.256 471.779L457.534 471.826L457.518 444.497C454.668 444.58 450.885 445.126 448.663 443.756C447.431 441.905 447.829 439.735 447.915 437.432Z"/><path fill="white" d="M316.67 437.434C322.296 437.406 338.564 436.879 342.925 437.694L343.622 438.76C343.774 440.886 344.205 442.21 343.39 443.922C340.877 444.849 336.754 444.492 333.912 444.451L333.919 463.19L333.938 471.789C331.703 471.802 328.642 472.111 326.84 471.155C326.086 465.436 326.409 450.882 326.393 444.489C323.449 444.597 319.757 445.145 317.349 443.838C316.021 441.92 316.506 439.835 316.67 437.434Z"/><path fill="#00C5CE" d="M172.81 134.332C175.707 134.592 175.651 134.424 177.476 136.099C178.8 138.999 178.365 142.521 178.311 145.84C182.368 145.75 186.222 144.821 188.566 148.702C187.759 153.822 182.224 152.706 178.235 152.564C178.339 157.049 178.802 160.458 176.639 164.428C173.559 163.717 174.425 164.327 172.256 162.366C170.977 159.399 171.503 155.964 171.646 152.612C167.527 152.735 163.773 153.543 161.298 149.797C161.804 144.726 167.726 145.665 171.545 145.759C171.497 141.867 171.201 137.83 172.81 134.332Z"/><path fill="#ADBACA" d="M251.136 526.865C252.244 522.235 254.094 511.818 257.306 508.909L258.57 509.045C261.521 512.262 263.669 522.768 264.88 527.435C265.55 524.125 266.472 520.523 267.257 517.207C267.837 518.153 269.667 520.683 269.943 521.187C269.122 524.742 268.541 531.762 264.157 531.78C260.989 529.119 259.126 518.432 257.986 514.057C256.138 519.381 255.305 525.212 253.344 530.494C252.667 532.318 253.066 531.759 251.377 532.487C246.187 530.552 242.846 513.363 243.215 508.504L244.098 507.841C248.45 509.816 248.679 520.527 251.136 526.865Z"/><path fill="#ADBACA" d="M318.717 506.597L320.539 507.331C322.177 509.761 322.395 529.654 320.422 532.36C318.78 532.449 319.102 532.203 317.408 530.802C314.224 533.417 312.827 532.775 308.844 532.206C305.366 528.718 303.344 522.323 306.853 517.73C310.915 512.412 314.499 516.923 317.667 516.457C318.366 514.221 317.94 509.811 318.717 506.597Z"/><path fill="#041613" d="M311.464 517.835C319.534 518.611 320.058 524.711 315.247 530.037C307.243 529.376 307.223 523.071 311.464 517.835Z"/><path fill="white" d="M348.986 437.448L356.597 437.421L356.599 471.821L348.913 471.749L348.986 437.448Z"/><path fill="white" d="M479.999 437.408L487.567 437.433L487.513 471.788C485.378 471.798 482.139 472.118 480.453 471.1C479.413 465.373 479.929 444.469 479.999 437.408Z"/><path fill="#ADBACA" d="M380.58 514.885C392.315 514.619 395.606 526.861 385.818 532.689C372.707 532.954 370.426 520.862 380.58 514.885Z"/><path fill="#050E0D" d="M381.259 517.829C389.288 518.388 389.49 525.585 384.257 530.198C382.798 529.946 381.253 529.764 380.137 528.761C378.876 527.621 378.157 526 378.158 524.3C378.175 521.31 379.347 519.899 381.259 517.829Z"/><path fill="#ADBACA" d="M400.922 514.831C413.659 515.667 414.379 529.65 403.522 532.966C391.813 531.829 390.271 519.536 400.922 514.831Z"/><path fill="#041613" d="M400.666 517.85C408.785 518.377 408.871 525.539 403.87 530.226C396.244 528.954 396.298 522.932 400.666 517.85Z"/><path fill="#ADBACA" d="M279.869 514.89C291.9 514.408 294.432 527.282 284.45 532.725C271.884 532.729 269.436 520.816 279.869 514.89Z"/><path fill="#ADBACA" d="M342.382 507.81C345.64 507.873 351.121 508.648 350.18 513.081L348.954 513.262C345.515 510.966 342.944 510.87 339.348 512.97L339.247 513.951C343.126 518.959 351.05 519.061 352.46 526.302C351.539 531.515 348.62 532.069 343.866 532.91C340.255 532.545 336.149 531.285 335.006 527.405C336.309 526.612 336.101 526.956 338.025 526.875C341.345 529.351 344.883 531.708 348.077 527.392C347.245 521.552 336.932 520.79 335.021 514.863C333.847 511.222 339.731 508.542 342.382 507.81Z"/><path fill="#00C5CE" d="M504.879 319.335C507.5 318.48 510.378 319.11 512.402 320.981C514.425 322.853 515.278 325.673 514.631 328.352C513.984 331.031 511.937 333.151 509.282 333.892C505.298 335.004 501.155 332.727 499.957 328.768C498.76 324.808 500.946 320.617 504.879 319.335Z"/><path fill="#ADBACA" d="M431.466 514.851C436.097 514.995 441.178 517.491 441.598 522.606C438.981 526.801 432.143 522.926 428.828 525.926L428.951 527.34C432.301 530.753 434.368 530.038 437.801 527.589L440.128 528.368L440.515 529.954C434.66 534.44 421.824 532.007 424.829 522.735C426.381 517.946 426.822 517.177 431.466 514.851Z"/><path fill="#050E0D" d="M430.853 517.834C433.773 517.954 434.128 517.973 436.405 519.52C437.216 521.383 437.23 520.499 436.541 522.258C434.278 522.279 431.679 522.549 429.666 521.679C429.219 519.749 429.517 520.17 430.853 517.834Z"/><path fill="#ADBACA" d="M356.39 507.179C357.849 507.254 357.793 507.296 359.155 507.874C360.27 510.051 359.75 514.198 359.653 516.9C373.482 509.767 372.945 527.865 369.315 531.616L368.32 531.213C366.931 528.095 367.412 525.421 367.574 521.945C367.27 519.911 366.318 517.849 363.852 518.028C356.372 518.572 362.081 528.765 358.9 532.337L357.024 532.301C355.133 529.714 356.341 511.644 356.39 507.179Z"/><path fill="#ADBACA" d="M415.691 509.764C417.37 510.147 417.547 509.978 418.622 511.237C418.674 512.812 418.508 514.007 419.376 515.27L422.427 515.751L422.902 516.777C416.199 522.021 415.369 526.93 423.795 530.745C422.295 532.696 419.697 533.61 417.407 532.519C414.597 529.068 415.807 523.536 415.021 518.788C414.218 518.381 413.426 517.953 412.644 517.505L412.881 515.851L414.625 515.335C415.605 513.968 415.501 511.697 415.691 509.764Z"/><defs><linearGradient id="gradient_1" gradientUnits="userSpaceOnUse" x1="444.8974" y1="522.59674" x2="451.23553" y2="523.63672"><stop offset="0" stop-color="#A2B2C4"/><stop offset="1" stop-color="#CCD4E3"/></linearGradient></defs><path fill="url(#gradient_1)" d="M452.215 514.619C453.534 515.004 453.136 514.922 454.299 515.861C453.979 517.863 451.422 518.546 448.747 520.508C446.677 525.744 450.294 529.093 446.164 533.293C443.28 530.766 444.484 521.127 444.691 517.252C444.831 514.633 447.853 516.625 449.537 516.197C449.701 516.156 451.868 514.824 452.215 514.619Z"/><path fill="#ADBACA" d="M301.716 514.488C303.134 515.192 302.632 514.824 303.596 516.193C302.996 518.307 301.47 517.911 299.348 519.611C295.547 522.659 298.055 525.826 297.462 530.836C296.131 532.847 296.848 532.205 294.046 532.977C294.122 529.625 293.385 518.687 294.399 516.792C299.095 515.89 297.475 517.126 301.716 514.488Z"/><path fill="#ADBACA" d="M267.257 517.207C268.031 514.042 268.46 511.044 270.649 508.632L271.533 508.527C272.791 513.036 271.227 516.648 269.943 521.187C269.667 520.683 267.837 518.153 267.257 517.207Z"/><path fill="#041613" d="M730.619 28.7714C758.369 27.5207 795.866 28.588 824.221 28.5904L1004.67 28.5619L1159.27 28.5952L1205.55 28.5331C1214.53 28.506 1224.6 27.9404 1232.98 28.7233C1263.29 31.5551 1270.93 56.8502 1268.61 83.2734C1267.95 90.7593 1268.55 102.972 1268.54 110.17L1268.54 214.674L1268.52 439.321L1268.59 510.771C1268.61 523.377 1268.78 535.999 1268.53 548.6C1268.14 568.155 1255.91 581.843 1237.29 586.301C1229.48 587.203 1218.64 586.93 1210.62 586.933L1169.05 586.927L1033.69 586.903L832.904 586.902L770.968 586.95C755.351 586.991 728.689 589.45 715.905 581.454C706.855 575.834 700.522 566.731 698.398 556.291C697.08 549.715 697.742 514.225 697.773 505.515L697.812 400.245L697.849 178.177L697.693 105.791C697.661 92.4841 697.368 79.1249 697.847 65.8309C698.589 45.1982 710.844 32.4765 730.619 28.7714Z"/><path fill="white" d="M1009.97 125.229C1016.23 124.113 1022.75 125.026 1028.7 127.08C1045.1 132.696 1054.63 148.546 1054.57 165.534C1054.46 197.151 1054.39 228.856 1054.56 260.48C1054.6 268.557 1055.2 279.225 1053.59 286.922C1052 294.413 1048.26 301.276 1042.82 306.665C1027.79 321.734 1008.53 318.44 988.856 318.425L944.665 318.358C931.525 329.609 918.642 342.271 905.522 353.613C900.823 357.676 898.559 360.799 892.634 360.435C892.058 359.938 891.49 359.44 890.963 358.891C887.25 355.022 889.071 324.541 889.126 317.752C877.954 317.897 869.925 316.803 860.861 309.792C844.779 297.352 845.895 281.055 845.947 263.037L846.053 229.07L845.95 195.269C845.929 188.443 845.597 178.682 846.658 172.226C847.781 165.387 850.633 158.948 854.944 153.521C859.12 148.336 865.908 143.063 872.318 141.432C886.434 137.842 904.148 136.817 918.934 135.193L1009.97 125.229Z"/><path fill="#041613" d="M1011.41 135.642C1020.26 134.283 1028.95 137.094 1035.35 143.372C1042.65 150.446 1044.16 158.039 1044.18 167.851C1044.27 201.333 1044.25 234.723 1044.26 268.208C1044.43 280.358 1044.56 290.163 1035.47 299.356C1024.16 310.805 1004.75 307.928 989.635 307.918L941.035 307.88C937.434 310.444 930.354 317.185 926.696 320.517C917.732 328.842 908.664 337.054 899.494 345.151L899.453 333.774C899.411 326.725 899.909 318.633 899.421 311.726C899.014 305.962 884.749 307.699 878.746 306.536C874.038 305.639 869.625 303.591 865.902 300.574C854.168 290.875 856.08 274.112 856.126 260.465L856.239 225.799C856.23 209.164 855.635 192.205 856.538 175.633C856.815 166.008 866.358 153.198 876.05 151.122C890.746 147.974 908.567 146.914 923.646 145.32L1011.41 135.642Z"/><path fill="#00C5CE" d="M948.337 182.482C956.122 182.055 963.753 184.254 969.404 189.871C973.948 194.365 976.375 200.573 976.085 206.958C975.559 221.026 967.21 224.55 958.069 231.699C953.516 235.26 953.737 240.689 953.463 246.069L952.56 246.144C950.009 246.352 946.218 246.973 944.435 244.824C939.454 238.822 945.159 229.271 949.544 224.783C954.883 221.079 961.708 217.144 963.984 210.818C968.706 197.698 952.603 188.788 942.017 195.632C936.331 199.308 935.683 203.426 934.377 209.516C932.836 209.597 928.642 209.94 927.379 209.307C920.652 205.791 925.912 197.027 929.182 192.762C934.215 186.2 940.309 183.495 948.337 182.482Z"/><path fill="#00C5CE" d="M945.855 256.858C949.769 255.216 954.273 257.047 955.931 260.954C957.589 264.861 955.776 269.373 951.876 271.046C947.953 272.73 943.409 270.904 941.742 266.975C940.074 263.045 941.919 258.509 945.855 256.858Z"/><path fill="#FC992A" d="M1066.74 187.089C1087.51 186.42 1103.98 191.173 1109.75 214.546C1111.09 219.992 1110.47 229.297 1110.47 235.084L1110.48 266.649L1110.46 302.101C1110.43 326.619 1110.58 349.911 1080.29 354.925C1080.27 361.584 1082.09 377.34 1079.34 382.82C1078.67 384.168 1077.5 384.935 1076.03 385.161C1068.68 386.284 1041.28 361.098 1034.49 355.514C1021.53 355.251 1008.32 355.864 995.359 355.572C983.751 355.311 977.293 351.922 969.577 343.669C966.788 339.821 962.743 334.381 966.218 330.192C968.672 329.005 970.982 329.499 973.798 329.679C975.136 333.378 976.307 336.317 979.194 339.12C982.061 341.883 985.624 343.816 989.503 344.714C996.204 346.325 1028.88 345.562 1037.75 345.525C1047.63 352.751 1060.74 364.341 1070.57 372.362C1070.7 367.114 1069.99 353.275 1070.86 348.966C1071.74 344.546 1089.9 344.871 1094.89 336.011C1096.48 333.178 1099.73 328.68 1099.94 323.782C1100.63 308.353 1100.37 292.037 1100.37 276.645L1100.37 240.098C1100.35 226.957 1102.21 219.374 1095.99 207.583C1088.35 193.094 1069.86 200.265 1063.94 195.44C1062.6 191.815 1063.28 188.908 1066.74 187.089Z"/><path fill="white" d="M1006.3 436.882C1026.04 435.008 1030.58 452.227 1022.48 467.524L1026.47 471.534C1024.68 473.645 1023.56 475.662 1021.12 476.057L1019.51 474.652C1014.75 469.339 1008.94 473.332 1003.49 470.781C988.108 463.576 991.328 443.126 1006.3 436.882Z"/><path fill="#050E0D" d="M1007.48 443.915C1017.23 443.487 1021.08 451.393 1017.51 459.769C1016.39 462.376 1014.31 460.992 1011.12 464.693L1011.39 465.261C1004.59 469.305 994.969 451.759 1007.48 443.915Z"/><path fill="white" d="M911.475 436.832C934.561 435.816 938.026 466.436 917.04 472.259C893.1 473.829 891.001 442.194 911.475 436.832Z"/><path fill="#050E0D" d="M911.166 443.964C925.439 443.266 925.892 458.405 917.138 465.334C902.987 466.114 902.512 450.525 911.166 443.964Z"/><path fill="white" d="M936.636 437.406L947.218 437.396C948.812 443.703 952.778 454.557 954.913 461.015C956.603 454.135 960.061 444.281 962.28 437.42L972.856 437.395C972.616 448.046 973.443 459.696 972.515 470.257C972.442 471.085 972.323 470.874 971.404 471.523C969.613 471.657 967.698 472.09 966.269 471.233C964.966 468.007 965.424 461.774 965.441 458.039L965.319 450.07C962.544 456.552 961.111 464.551 957.916 471.061C956.316 472.11 953.603 471.767 951.558 471.746C948.861 463.949 945.998 456.092 943.926 448.113C943.837 454.246 945.025 466.178 942.641 470.741C940.41 472.237 941.179 471.783 937.987 471.722C935.544 469.226 936.603 443.098 936.636 437.406Z"/><path fill="white" d="M848.934 437.41C853.416 437.359 858.704 437.019 863.107 437.449C878.987 439.001 881.571 456.541 873.254 467.473C865.816 472.978 857.935 471.879 848.868 471.849L848.934 437.41Z"/><path fill="#050E0D" d="M856.493 444.314C859.443 444.295 862.637 443.977 865.302 445.44C872.105 449.173 870.875 456.764 867.588 462.686C863.535 465.34 861.281 465.08 856.492 465.272L856.493 444.314Z"/><path fill="white" d="M1032.34 437.419C1034.95 437.355 1036.88 437.13 1039.4 437.82C1042.43 443.662 1035.85 462.199 1044.53 466.001C1060.16 465.792 1047.61 443.097 1054.61 436.866C1060.43 436.582 1060.26 439.382 1060.35 443.781C1060.32 449.275 1061.94 462.827 1057.48 467.91C1051.37 474.877 1035.2 473.915 1032.97 463.717C1031.59 457.39 1032.25 444.909 1032.34 437.419Z"/><path fill="white" d="M1082.36 437.388C1089.42 437.309 1099.54 436.866 1106.66 437.678C1107.76 437.804 1107.61 438.164 1108.23 439.362C1108.02 445.872 1096.1 459.116 1091.41 464.997C1097.14 465.199 1102.77 463.888 1107.33 465.793C1108.88 467.898 1108.33 467.731 1108.33 471.009C1106.61 472.499 1083.41 472.41 1081.6 470.254C1082.09 462.682 1092.68 451.089 1097.83 444.508C1092.61 444.319 1087.4 445.604 1083.38 443.609C1081.84 441.279 1082.37 440.548 1082.36 437.388Z"/><path fill="#FC992A" d="M801.137 129.031C807.376 130.949 805.896 135.517 805.696 141.156C810.006 141.116 813.465 140.007 816.213 143.791C815.735 148.864 809.45 147.859 805.675 147.767C805.856 152.451 806.62 155.879 803.739 159.476C797.107 157.73 798.658 154.041 798.815 147.827L796.668 147.818C792.747 147.818 791.221 148.375 788.678 145.189C789.05 140.049 795.146 140.921 799.02 140.868C798.907 135.931 798.19 132.849 801.137 129.031Z"/><path fill="#ADBACA" d="M1101.85 514.771C1104.5 515.002 1108.24 515.808 1111.5 516.124C1113.11 520.721 1112.77 530.385 1110.97 535.041C1108.58 541.197 1098.83 541.208 1096.44 534.958C1100.73 533.893 1099.63 535.638 1103.6 536.413C1106.37 536.955 1108.65 534.168 1108.91 531.637L1107.96 531.128C1104.11 532.515 1099.84 533.992 1097.61 529.527C1094.37 523.014 1096.05 518.105 1101.85 514.771Z"/><path fill="#050E0D" d="M1102.33 517.858C1110.45 518.348 1110.65 525.087 1105.45 529.745C1098.13 528.342 1098.1 522.804 1102.33 517.858Z"/><path fill="#ADBACA" d="M1088.82 506.991C1089.55 507.165 1090.66 507.569 1091.36 507.801C1092.97 511.393 1092.45 527.959 1091.76 532.309L1090.42 532.791L1087.95 531.312L1086.91 531.608C1083.14 532.665 1083.78 532.957 1079.56 532.135C1074.82 527.399 1074.34 518.587 1080.99 514.986C1082.97 513.917 1086.2 515.954 1088.15 516.717C1089.14 514.535 1088.82 509.628 1088.82 506.991Z"/><path fill="#041613" d="M1081.71 517.965C1090 518.11 1090.57 524.117 1086.26 529.745C1077.86 530.001 1078.17 523.463 1081.71 517.965Z"/><path fill="white" d="M1067.67 437.386L1075.57 437.464C1075.36 448.788 1075.47 460.43 1075.44 471.78L1067.64 471.792L1067.67 437.386Z"/><path fill="white" d="M833.436 437.413C836.387 437.326 837.48 437.283 840.37 437.759C841.785 440.123 841.19 467.138 841.176 471.811C838.338 471.885 836.94 472.036 834.101 471.428C833.179 468.664 833.443 442.113 833.436 437.413Z"/><path fill="white" d="M883.908 437.387C886.018 437.352 889.808 437.034 891.319 438.291C892.212 444.509 891.685 464.577 891.656 471.812L883.942 471.778L883.908 437.387Z"/><path fill="#ADBACA" d="M906.014 514.856C910.052 514.966 912.873 515.778 914.946 519.574C916.195 521.841 916.409 524.535 915.534 526.971C914.341 530.381 912.705 531.36 909.629 532.83C896.878 532.577 895.267 519.576 906.014 514.856Z"/><path fill="#041613" d="M905.359 517.948C913.622 518.268 913.836 524.215 909.73 529.748C901.351 529.815 901.275 523.433 905.359 517.948Z"/><path fill="#ADBACA" d="M1008.75 514.88C1020.73 514.992 1022.97 527.506 1013.07 532.837C1000.29 532.643 998.43 520.169 1008.75 514.88Z"/><path fill="#050E0D" d="M1008.75 517.923C1017.02 518.372 1017.14 524.451 1012.84 529.919C1004.59 529.174 1004.52 523.596 1008.75 517.923Z"/><path fill="#ADBACA" d="M1020.78 515.096C1022.51 515.225 1022.7 515.083 1024.18 515.897C1026.36 519.223 1026.98 523.923 1027.85 527.915C1029.02 524.226 1030.35 517.291 1034.01 515.844C1037.15 517.452 1038.51 525.009 1039.43 528.417C1040.12 525.602 1041.87 516.775 1044.06 515.197C1045.75 515.389 1045 515.054 1046.26 516.462L1045.85 518.61C1044.46 523.171 1043.65 527.784 1040.55 531.205C1035.9 532.557 1034.56 523.414 1033.55 519.849C1032.5 523.738 1031.56 530.539 1027.59 532.064C1024.6 530.439 1021.94 518.925 1020.78 515.096Z"/><path fill="#ADBACA" d="M965.653 519.574C969.127 515.709 973.418 509.584 978.503 508.217C978.512 511.319 972.979 516.445 970.656 518.895L976.622 526.654C977.976 528.338 979.183 529.466 979.642 531.546L978.927 532.37C973.353 530.991 971.11 523.33 967.089 522.21C964.957 524.469 966.858 529.754 964.495 532.326L962.579 532.207C961.441 530.46 961.898 511.681 961.886 507.847C963.403 508.145 963.412 508.147 964.802 508.822C966.099 511.967 965.627 515.92 965.653 519.574Z"/><path fill="#FC992A" d="M1162.34 322.554C1166.49 321.947 1170.35 324.785 1171 328.921C1171.66 333.056 1168.86 336.949 1164.73 337.652C1162.02 338.113 1159.27 337.081 1157.53 334.949C1155.79 332.818 1155.33 329.915 1156.33 327.35C1157.32 324.785 1159.62 322.953 1162.34 322.554Z"/><path fill="#ADBACA" d="M1122.05 514.882C1126.86 514.879 1131.76 516.522 1132.02 522.242C1129.4 526.582 1124.26 523.955 1119.84 526.185C1120.28 528.102 1120.95 528.018 1122.96 529.608C1125.33 530.069 1125.7 529.71 1128.06 528.743C1128.49 527.942 1128.34 528.272 1129.33 527.689L1130.42 528.326C1130.27 530.67 1130.62 529.573 1129.02 531.613C1117.92 537.198 1109.51 522.2 1122.05 514.882Z"/><path fill="#050E0D" d="M1121.86 517.698C1124.58 517.883 1126.95 518.189 1127.83 521.024L1127.23 522.159C1125.1 522.221 1122.24 522.609 1120.5 521.628C1120.29 519.459 1120.46 520.02 1121.86 517.698Z"/><path fill="#ADBACA" d="M1063.49 514.77C1068.62 514.795 1070.63 515.966 1073.32 520.571C1076.4 525.85 1064.77 524.668 1061.68 525.209C1060.63 526.834 1060.83 525.982 1060.97 527.823C1064.07 530.62 1067.24 530.115 1070.2 527.556L1072.32 528.404L1072.67 529.551C1067.69 534.513 1054.49 532.458 1056.86 523.641C1058.27 518.382 1058.76 517.517 1063.49 514.77Z"/><path fill="#050E0D" d="M1062.93 517.917C1065.69 517.764 1068.28 518.152 1069.2 521.033L1068.6 522.107C1066.35 522.19 1063.68 522.55 1061.69 521.694C1061.33 519.785 1061.63 520.15 1062.93 517.917Z"/><path fill="#ADBACA" d="M831.024 514.852C835.958 514.96 840.835 517.205 841.102 522.824C839.07 525.627 834.15 524.308 829.583 525.052C828.285 526.615 828.664 525.737 828.456 527.798C831.923 530.802 834.878 529.626 838.087 527.332L839.381 528.529C839.035 529.857 838.782 530.824 837.333 531.489C824.934 537.182 818.863 520.815 831.024 514.852Z"/><path fill="#050E0D" d="M830.448 517.89C833.163 517.85 836.354 518.227 836.886 521.393L836.151 522.342C833.906 522.416 831.001 522.829 829.148 521.8C828.82 519.843 829.172 520.135 830.448 517.89Z"/><path fill="#ADBACA" d="M890.463 519.203C893.002 514.338 893.987 511.399 898.567 508.412L899.109 508.964C898.781 512.422 897.01 514.795 895.243 517.863L894.99 518.338C892.256 523.677 892.693 529.355 889.912 533.131C888.713 531.85 888.724 530.354 888.695 528.164C888.602 521.206 883.765 514.417 880.219 508.164C886.494 508.314 887.602 514.004 890.463 519.203Z"/><path fill="#ADBACA" d="M991.141 514.853C1001.65 515.133 1000.88 530.525 996.392 532.389C994.853 530.621 996.112 524.084 994.268 519.548C992.306 517.732 992.887 518.299 989.791 517.766C984.624 523.769 990.064 530.234 985.669 533.002C982.9 531.152 983.307 518.956 984.297 516.471C988.691 515.879 987.329 517.293 991.141 514.853Z"/><path fill="#ADBACA" d="M807.459 508.461C811.303 508.334 823.369 507.763 825.845 509.376L826.041 510.646C823.522 512.729 822.926 510.506 819.174 512.073C818.257 514.887 818.719 522.042 818.794 525.388C818.798 527.712 818.719 529.44 818.53 531.757C817.056 532.687 817.861 532.482 815.997 532.212C813.68 529.262 815.428 518.221 814.84 512.891C812.498 509.565 811.781 513.273 807.976 510.903L807.459 508.461Z"/><path fill="#ADBACA" d="M919.503 514.799L921.952 515.491C924.239 518.691 921.64 527.028 925.818 530.445C933.303 529.103 929.176 520.339 931.427 515.592C933.405 515.375 932.602 515.101 934.003 516.126L934.072 518.569C934.104 521.722 934.708 530.609 933.063 532.38C931.835 532.3 931.725 532.221 930.705 531.587L929.832 531.032C917.86 539.068 919.371 521.622 919.503 514.799Z"/><path fill="#ADBACA" d="M847.793 514.904C850.953 514.912 854.682 515.042 855.992 518.493C854.655 519.259 849.628 518.613 847.67 518.496L847.012 519.228C849.002 522.382 854.867 523.043 857.301 527.762C857.258 531.662 852.846 532.439 849.518 532.953C846.837 532.586 844.715 531.931 843.159 529.652L843.791 528.267C846.585 527.638 846.516 529.284 850.647 529.899C852.663 529.077 852.012 529.749 852.945 528.142C850.701 523.996 842.616 524.991 843.604 518.586C845.093 516.386 845.443 516.323 847.793 514.904Z"/><path fill="#ADBACA" d="M861.541 509.751C863.106 510.17 863.411 510.026 864.372 511.237C864.477 512.814 864.366 514.006 865.229 515.291L868.041 515.676L868.445 516.694C863.103 521.991 860.533 527.519 869.555 530.772C868.002 532.523 867.319 532.603 865.166 533.264C861.359 531.85 861.138 527.775 861.205 524.119C861.332 517.102 860.156 520.013 858.264 517.138L858.61 515.842L860.667 515.026C861.241 513.041 861.32 511.775 861.541 509.751Z"/><path fill="#ADBACA" d="M1049.78 507.008L1052.12 507.593C1054.21 510.034 1053.28 528.764 1053.21 532.965C1052.04 532.691 1051.58 532.505 1050.45 532.098C1048.76 528.694 1049.69 511.828 1049.78 507.008Z"/><path fill="#ADBACA" d="M947.004 514.579C947.813 515.044 947.925 515.39 948.575 516.178L948.291 517.291C935.276 524.099 948.217 529.773 939.426 532.937C939.232 529.245 937.79 519.113 939.448 516.836C943.03 515.323 942.616 516.867 947.004 514.579Z"/><path fill="#041613" d="M94.4357 626.327C99.7457 625.79 110.842 626.075 116.671 626.075L158.351 626.111L292.913 626.137L499.512 626.138L563.043 626.082C575.076 626.057 586.993 625.98 599.08 626.196C614.776 626.478 628.481 636.159 633.447 651.156C636.153 659.328 635.34 669.865 635.442 678.472C635.542 686.896 635.392 695.467 635.369 703.92L635.31 799.482L635.335 1004.63L635.348 1072.5C635.355 1103.8 641.764 1137.22 602.634 1145.96C596.714 1146.6 584.837 1146.31 578.668 1146.31L536.271 1146.31L395.815 1146.28L196.528 1146.31L135.538 1146.3C118.178 1146.36 93.1406 1149.44 78.7011 1139.28C70.4608 1133.51 64.9011 1124.65 63.2825 1114.72C62.3813 1109.03 62.5441 1098.57 62.5588 1092.6L62.9093 1055.19L63.0161 947.306L62.9846 758.902L62.5754 695.41C62.4587 666.699 57.0811 631.847 94.4357 626.327Z"/><path fill="white" d="M338.895 735.245C367.325 710.693 405.302 700.359 442.414 702.014C464.117 702.982 466.744 703.189 466.536 724.947C480.838 724.718 491.689 723.038 491.852 741.263C491.956 752.961 491.995 764.833 491.994 776.542L491.979 842.649L491.973 883.99C491.955 913.248 493.109 917.098 460.941 916.028C456.126 915.868 450.475 915.948 445.587 915.905L439.379 915.809C439.335 921.361 439.906 933.079 437.593 937.578C436.464 938.083 436.243 938.484 435.322 937.946C429.901 934.779 423.657 927.812 418.798 923.658C414.947 927.143 404.268 938.207 400.083 938.054C396.807 935.141 398.108 921.484 398.253 916.881C388.189 917.145 375.562 920.199 365.842 922.756C356.752 945.952 321.237 946.341 311.9 922.667C298.077 919.29 286.016 917.071 271.736 916.356C254.779 915.347 237.983 916.316 220.987 916.066C212.422 915.939 198.662 917.942 191.71 912.542C188.014 909.67 186.752 904.211 186.737 899.696C186.624 866.521 186.849 833.34 186.821 800.163L186.697 759.949C186.672 752.895 186.335 745.692 186.915 738.676C188.209 723.035 200.132 724.796 211.513 724.937C211.246 708.294 211.351 703.956 229.277 702.462C268.346 699.207 308.858 709.252 338.895 735.245Z"/><path fill="#041613" d="M319.377 914.791C292.524 904.679 254.207 905.689 225.92 905.811C217.764 905.847 208.62 906.122 200.499 905.548C199.526 905.479 198.197 904.783 197.684 903.885C196.964 902.625 196.783 900.137 196.786 898.651C196.868 865.358 196.722 831.378 196.787 798.152C196.802 790.519 196.294 741.277 197.649 736.563C201.164 733.606 206.678 734.558 211.543 734.682L211.53 826.262C211.506 840.363 210.711 861.208 212.53 875.096C214.911 882.254 223.499 881.647 229.355 881.535C265.497 880.845 300.898 890.718 331.061 910.732C335.708 913.815 341.727 914.178 346.758 910.828C362.978 900.026 379.198 893.362 397.847 887.903C398.658 890.943 398.234 902.559 398.236 906.444C390.023 907.707 366.632 910.953 359.467 914.794C356.44 916.416 357.649 925.885 345.463 929.945C340.223 931.729 334.485 931.33 329.541 928.838C322.832 925.412 321.306 921.265 319.377 914.791Z"/><path fill="#041613" d="M466.597 734.587C471.295 734.487 477.315 733.633 480.817 736.428C481.738 738.136 481.696 740.429 481.684 742.374C481.375 795.687 482.146 849.145 481.258 902.401C481.164 908.059 450.218 905.811 445.182 905.991L439.335 906.05C438.651 898.959 439.077 888.992 439.2 881.644C443.156 881.631 447.246 881.661 451.227 881.656C461.293 881.641 466.021 879.848 466.325 869.214C466.736 854.833 466.49 840.557 466.489 826.208L466.597 734.587Z"/><path fill="#00C5CE" d="M397.847 887.903C412.84 883.931 423.883 882.496 439.2 881.644C439.077 888.992 438.651 898.959 439.335 906.05L439.379 915.809C439.335 921.361 439.906 933.079 437.593 937.578C436.464 938.083 436.243 938.484 435.322 937.946C429.901 934.779 423.657 927.812 418.798 923.658C414.947 927.143 404.268 938.207 400.083 938.054C396.807 935.141 398.108 921.484 398.253 916.881C398.502 913.383 398.335 909.949 398.236 906.444C398.234 902.559 398.658 890.943 397.847 887.903Z"/><path fill="#C2F7FB" d="M439.335 906.05L445.182 905.991C444.947 910.222 445.091 911.692 445.587 915.905L439.379 915.809L439.335 906.05Z"/><path fill="#041613" d="M234.215 712.318C271.414 710.62 305.418 720.282 333.883 744.574L333.823 900.439L325.1 895.412C289.155 875.336 262.005 871.248 221.562 871.509L221.609 713.567C225.505 712.762 230.196 712.585 234.215 712.318Z"/><path fill="#00C5CE" d="M246.29 751.667C259.406 751.506 301.727 759.573 309.756 769.325C310.276 771.764 310.159 770.931 308.899 773.68C297.659 770.63 286.208 763.412 273.774 761.243C267.758 760.193 247.801 758.427 244.933 755.846C244.893 753.309 244.859 754.15 246.29 751.667Z"/><path fill="#00C5CE" d="M245.552 802.396C246.689 802.363 247.827 802.381 248.962 802.449C262.323 803.275 301.426 810.57 309.716 819.833C310.329 822.293 310.198 821.427 309.063 824.236C308.754 824.208 289.975 817.067 289.445 816.692C281.805 811.292 249.576 809.779 245.297 807.052C244.456 804.683 244.764 805.325 245.552 802.396Z"/><path fill="#00C5CE" d="M245.666 827.216C258.693 827.041 300.97 835.723 309.648 844.632C310.439 847.031 310.288 846.119 309.169 849.025C305.986 848.655 294.926 843.792 291.213 842.376C284.49 839.777 277.558 837.752 270.493 836.324C265.341 835.333 247.343 833.723 245.007 831.506C244.595 829.099 244.74 829.812 245.666 827.216Z"/><path fill="#00C5CE" d="M246.723 777.227C248.077 777.343 249.431 777.466 250.784 777.596C262.91 778.761 302.925 786.743 310.142 795.497C310.152 797.835 309.762 797.552 308.155 799.931C295.043 793.459 281.156 788.692 266.833 785.747C260.549 784.502 248.034 784.801 245.041 781.202C245.162 778.717 245.057 779.555 246.723 777.227Z"/><path fill="#041613" d="M427.345 712.312C435.753 711.633 448.033 712.311 456.25 713.527L456.276 871.522C419.589 871.038 397.008 874.581 363.349 889.715C356.664 893.303 350.581 896.522 344.174 900.597L344.076 744.367C365.542 723.884 398.208 714.339 427.345 712.312Z"/><path fill="#00C5CE" d="M424.019 751.984C427.125 751.616 434.143 750.8 433.271 756.079C430.563 758.505 425.1 758.131 421.536 758.511C404.74 760.303 389.252 765.154 373.901 771.868C371.367 773.175 367.649 774.518 366.475 770.831C371.115 761.199 412.913 753.343 424.019 751.984Z"/><path fill="#00C5CE" d="M426.73 827.497L430.295 827.316C432.399 828.36 433.734 828.9 433.167 831.454C430.028 834.118 412.994 834.811 406.169 836.754C393.542 840.348 385.415 842.095 373.108 847.661C370.673 848.68 369.272 849.293 366.984 847.661C367.737 836.682 416.645 828.537 426.73 827.497Z"/><path fill="#00C5CE" d="M427.391 802.779C429.523 802.43 429.852 802.238 431.811 803.218C433.328 805.367 433.045 804.234 432.947 806.66C431.892 807.678 431.199 808.273 429.641 808.393C408.965 809.984 391.09 814.769 371.915 823.26C369.873 824.125 369.93 824.03 367.841 823.746L367.039 822.584C368.607 811.324 417.295 803.602 427.391 802.779Z"/><path fill="#00C5CE" d="M423.32 778.007C425.891 777.72 430.238 776.959 432.317 778.466C433.223 780.657 433.208 779.598 432.513 781.746C428.804 784.702 418.555 784.241 413.23 785.302C399.608 788.017 387.953 791.683 375.105 796.958C372.553 798.244 368.27 800.127 366.364 797.03C369.947 787.351 412.805 779.469 423.32 778.007Z"/><path fill="white" d="M406.922 1005.03C410.407 1004.79 413.796 1004.63 417.08 1006.05C421.246 1007.84 424.499 1011.26 426.089 1015.51C430.129 1026.15 425.521 1036.7 414.444 1040.04C411.741 1040.25 408.134 1040.38 405.59 1039.51C401.456 1038.06 398.095 1034.99 396.287 1031C391.341 1020.2 395.93 1009.31 406.922 1005.03Z"/><path fill="#041613" d="M410.144 1011.52C422.253 1012.93 423.122 1029.51 411.651 1033.9C407.285 1033.11 404.868 1031.67 403.211 1027.35C401.815 1023.81 402.006 1019.85 403.735 1016.46C405.37 1013.24 406.881 1012.53 410.144 1011.52Z"/><path fill="white" d="M433.374 1005.43C443.409 1005.29 461.297 1002.92 458.073 1019.43C457.436 1022.7 454.753 1024.66 452.116 1026.32C454.2 1030.2 458.643 1035.27 458.549 1038.62C456.836 1040.14 455.665 1039.62 452.851 1039.68C448.619 1038.13 448.528 1031.74 444.692 1027.9C442.324 1027.44 443.441 1027.34 441.218 1028.2C438.416 1032.6 444.114 1036.11 438.547 1040.3C435.825 1040.62 433.527 1038.72 433.455 1036.13C433.168 1025.95 433.354 1015.64 433.374 1005.43Z"/><path fill="#050E0D" d="M440.861 1012.08C444.907 1012 448.271 1011.39 450.477 1015.21C450.599 1017.79 450.443 1017.94 449.371 1020.39C448.838 1020.52 448.304 1020.65 447.768 1020.77C444.809 1021.44 443.802 1021.74 441.532 1020.3C440.348 1018.04 440.792 1014.79 440.861 1012.08Z"/><path fill="white" d="M256.068 1005.48L264.218 1005.49C268.34 1012.55 272.534 1019.56 276.8 1026.53C277 1020 276.223 1013.06 277.478 1006.69C277.92 1004.45 282.436 1005.42 283.962 1006.33C284.912 1012.74 284.321 1032.38 284.282 1039.52L276.325 1039.51C271.982 1032.45 267.729 1025.33 263.569 1018.16C263.454 1022.9 264.273 1036.1 262.349 1039.49C260.009 1039.77 259.662 1039.67 257.288 1039.32C254.979 1036.89 256.03 1010.2 256.068 1005.48Z"/><path fill="white" d="M220.462 1005.49L228.564 1005.41C232.237 1012.2 237.077 1020.14 241.248 1026.6C241.182 1020.84 239.318 1009.52 243.382 1005.7C245.57 1005.28 245.527 1005.36 247.602 1005.78C249.468 1008.58 248.531 1034.74 248.503 1039.25C246.903 1039.74 242.473 1039.56 240.578 1039.55C236.203 1032.57 231.874 1025.14 227.589 1018.05C227.463 1024.09 229.573 1035.49 225.287 1039.34C223.292 1039.62 223.166 1039.78 221.205 1039.14C219.491 1035.1 220.385 1011.32 220.462 1005.49Z"/><path fill="white" d="M185.127 1005.5C186.671 1005.45 191.586 1005.43 191.866 1005.85C196.226 1012.35 186.463 1033.08 199.121 1033.47C201.224 1033.53 202.526 1032.78 204.121 1031.33C207.707 1023.45 202.571 1010.36 207.541 1005.56C209.606 1004.83 210.075 1005.13 212.179 1005.67C213.269 1007.62 212.881 1009.57 212.902 1012.08C213.058 1019.18 214.282 1030.1 209.98 1035.84C206.023 1041.35 193.588 1041.75 189.149 1037.02C183.105 1030.58 184.999 1014.29 185.127 1005.5Z"/><path fill="white" d="M480.76 1005.47C484.69 1005.46 500.023 1004.69 502.502 1006.3C503.898 1016.57 493.716 1009.93 488.696 1013.16C487.72 1015.35 488.026 1015.94 488.393 1018.44C490.189 1019.53 498.122 1019.09 500.883 1019.09L500.879 1025.51L488.222 1025.58C488.185 1027.89 487.829 1031.31 489.03 1032.9C494.093 1034.2 500.25 1030.95 503.17 1034.72C503.354 1036.88 503.488 1036.86 502.327 1038.78C499.357 1040.45 485.233 1039.61 480.842 1039.56C480.71 1028.2 480.683 1016.84 480.76 1005.47Z"/><path fill="white" d="M345.71 1004.99C353.711 1004.31 356.247 1005.19 361.609 1010.82C352.805 1017.48 353.373 1010.38 346.83 1011.52C345.369 1012.94 345.25 1012.86 344.884 1014.93C348.051 1021.14 360.813 1018.55 362.023 1026.56C363.372 1035.49 358.483 1038.71 351.065 1040.26L348.997 1040.2C342.024 1039.92 340.11 1038.52 335.563 1033.61C339.409 1030.07 340.077 1029.51 344.905 1032.16C348.911 1034.36 351.902 1035.59 354.465 1030.74C352.692 1025.01 341.271 1025.97 337.616 1018.44C336.63 1016.42 336.504 1014.09 337.269 1011.98C338.741 1007.97 342.122 1006.5 345.71 1004.99Z"/><path fill="white" d="M516.242 1005.04C520.807 1004.62 531.058 1005.06 531.673 1010.75C529.849 1012.84 529.544 1013.2 527.184 1014.62C523.401 1013.03 521.442 1010.12 517.254 1011.63C515.93 1013.12 516.06 1013.05 515.678 1015.03C518.564 1020.77 530.971 1018.37 532.987 1026.28C534.866 1033.66 529.52 1038.19 523.296 1040.14C518.142 1040.47 511.071 1039.72 507.545 1035.49C507.077 1032.81 507.013 1034.12 507.926 1031.42C512.307 1028.16 515.155 1034.35 522.509 1033.71C524.53 1032.74 524.411 1032.75 525.417 1030.88C523.323 1025.45 510.471 1024.53 507.808 1017.27C505.646 1011.37 511.57 1007.2 516.242 1005.04Z"/><path fill="white" d="M158.096 1005.49C163.695 1005.44 173.958 1004.93 178.911 1005.86C180.047 1007.76 179.598 1008.18 179.58 1010.83C177.02 1013.07 169.574 1012.3 165.701 1012.25L165.622 1019.87C169.484 1019.89 173.496 1018.86 176.741 1020.31C178.438 1022.47 177.863 1022.25 178 1025.66C176.119 1027.08 168.445 1026.51 165.633 1026.47L165.733 1031.08C165.779 1033.96 166.291 1037.39 164.313 1039.43C161.574 1039.56 161.298 1039.6 158.668 1038.99C157.602 1035.69 158.078 1010.62 158.096 1005.49Z"/><path fill="white" d="M310.859 1005.47L319.001 1005.53C316.768 1009.96 314.327 1014.45 312.013 1018.84C306.751 1028.13 307.539 1025.57 307.781 1036.23C307.824 1038.13 307.892 1038.33 306.847 1039.28C303.949 1039.58 303.302 1039.7 300.471 1039.14C299.343 1036.63 300.422 1029.25 299.79 1027.47C297.423 1020.8 291.948 1011.77 288.445 1005.5L297.108 1005.48C299.35 1010.29 301.482 1014.38 303.986 1019.05C306.299 1014.88 308.693 1009.79 310.859 1005.47Z"/><path fill="white" d="M365.016 1005.47C369.465 1005.43 389.984 1004.32 392.254 1006.73C392.356 1008.82 392.513 1009.37 391.737 1011.35C389.083 1013.16 385.874 1012.44 382.39 1012.29L382.332 1028.68C382.302 1031.31 382.899 1035.44 382.084 1037.78C381.344 1039.91 376.989 1039.82 375.227 1038.97C374.192 1034.13 374.701 1017.99 374.743 1012.3C371.874 1012.39 368.261 1012.91 365.927 1011.63C364.571 1009.8 364.951 1007.81 365.016 1005.47Z"/><path fill="#ADBACA" d="M337.163 1073.81C340.564 1074.1 342.032 1074.31 344.209 1077C345.755 1081.65 343.202 1083.56 339.564 1085.88C341.219 1087.83 342.262 1089.89 344.259 1090.19L346.673 1087.24C348.476 1086.64 347.601 1086.61 349.378 1087.42L349.478 1088.77C344.9 1097.82 350.257 1094 350.394 1098.89C346.345 1098.92 346.395 1096.97 342.68 1097.65C338.487 1098.43 333.767 1099.71 330.279 1096.66C327.866 1092.09 329.986 1088.56 333.374 1085.43C334.433 1081.82 331.727 1081.35 332.497 1077.35C333.985 1075.19 334.715 1075.06 337.163 1073.81Z"/><path fill="#050E0D" d="M335.407 1087.79C338.031 1088.78 340.682 1091.65 341.594 1094.33L340.249 1096.03C336.721 1096.1 335.103 1096.05 333.436 1092.84C333.395 1090.23 333.764 1090.03 335.407 1087.79Z"/><path fill="#050E0D" d="M337.312 1077.54C338.765 1076.88 340.484 1077.49 341.187 1078.92C341.89 1080.36 341.321 1082.09 339.904 1082.83C338.955 1083.33 337.812 1083.27 336.918 1082.68C336.025 1082.09 335.521 1081.06 335.603 1080C335.685 1078.93 336.339 1077.99 337.312 1077.54Z"/><path fill="#ADBACA" d="M424.944 1081.05C427.819 1080.9 428.336 1081.17 431.055 1082.24L431.792 1082.54L434.151 1081.47L435.36 1081.99C436.739 1085.16 436.513 1086.94 436.593 1090.23C436.771 1097.51 435.159 1107.85 425.307 1105.59C422.402 1104.92 421.51 1103.93 420.04 1101.39C423.628 1100.37 422.881 1100.98 427.211 1102.75C430.205 1102.6 432.813 1101.3 432.565 1097.92L431.4 1097.51C417.374 1101.48 416.961 1086.59 424.944 1081.05Z"/><path fill="#041613" d="M425.661 1084.23C433.625 1084.02 434.418 1089.37 430.67 1095.07C422.291 1095.68 421.881 1090.13 425.661 1084.23Z"/><path fill="#00C5CE" d="M150.604 918.768C152.845 918.897 153.242 918.77 154.973 920.234C156.312 922.882 155.846 926.21 155.773 929.324C159.358 929.247 164.334 928.386 164.946 932.992C162.44 936.407 159.676 935.632 155.722 935.631C155.734 939.145 156.091 942.859 154.797 946.025C151.777 945.753 152.591 946.227 150.349 944.656C149.059 942.128 149.518 938.713 149.586 935.715C146.101 935.75 140.439 936.533 140.265 931.723C142.566 928.389 145.897 929.2 149.594 929.295C149.601 925.792 149.251 921.88 150.604 918.768Z"/><path fill="#00C5CE" d="M504.498 672.064C507.371 672.168 506.729 671.753 508.903 673.082C510.335 675.543 509.845 678.921 509.782 681.953C513.721 681.884 516.263 681.082 518.874 684.353C518.908 689.148 513.415 688.482 509.996 688.465C509.882 692.068 510.121 695.446 508.635 698.657C506.467 698.412 506.119 698.5 504.428 697.06C503.139 694.496 503.593 691.3 503.669 688.289C499.833 688.325 497.166 689.062 494.55 685.884C494.51 681.039 500.117 681.815 503.6 681.814C503.622 678.47 503.345 675.125 504.498 672.064Z"/><path fill="white" d="M465.327 1005.44C467.534 1005.38 471.179 1005 472.81 1006.4C473.652 1012.53 473.097 1032.4 473.06 1039.53C470.376 1039.62 468.273 1039.95 465.822 1038.96C464.88 1035.27 465.308 1010.82 465.327 1005.44Z"/><path fill="#ADBACA" d="M385.25 1086.35L383.703 1085.67L383.422 1084.4C393.073 1071.54 400.933 1092.78 395.778 1098.59C392.675 1099.12 394.023 1097.63 392.585 1097.67C388.559 1097.77 383.028 1099.91 381.377 1094.94C382.027 1092.36 382.269 1092.19 383.876 1089.98C385.19 1089.27 385.735 1088.81 387.209 1088.67L385.25 1086.35Z"/><path fill="#050E0D" d="M385.25 1086.35C387.838 1084.2 390.672 1082.81 392.881 1086.28C391.693 1089.05 390.071 1088.56 387.209 1088.67L385.25 1086.35Z"/><path fill="#050E0D" d="M387.24 1090.92C389.401 1090.81 391.097 1090.39 392.762 1091.58C392.985 1094 392.672 1093.64 391.435 1096.22C388.758 1096.26 387.812 1096.3 385.981 1094.79C385.886 1092.47 385.881 1093.24 387.24 1090.92Z"/><path fill="#ADBACA" d="M273.103 1081.13C274.818 1081.06 277.879 1080.79 279.233 1081.79C283.669 1085.06 285.194 1093.83 282.012 1098.11C277.256 1098.42 273.349 1099.41 269.196 1097.89C268.247 1095.29 267.948 1094.96 268.349 1092.33C271.01 1087.34 274.981 1089.83 279.108 1087.2L279.18 1085.96L278.1 1084.81C275.244 1084.22 272.88 1085.4 269.541 1085.76L269.264 1084.95C270.183 1082.71 270.942 1082.52 273.103 1081.13Z"/><path fill="#050E0D" d="M274.012 1090.79C276.785 1090.81 277.442 1090.52 279.122 1092.08C279.083 1094.08 278.187 1094.78 276.903 1096.36C274.068 1096.19 273.624 1096.29 271.919 1094.2C272.347 1091.91 272.1 1092.7 274.012 1090.79Z"/><path fill="#ADBACA" d="M255.091 1081.16C260.38 1081.08 263.648 1081.52 265.612 1087.82C265.886 1088.7 265.33 1089.09 264.808 1089.93C261.863 1091.31 257.823 1090.85 253.886 1091.64L253.256 1092.6C254.117 1094.53 254.369 1094.54 255.987 1095.85C258.638 1096.25 258.816 1096.04 261.386 1094.93L262.727 1094.01L263.88 1094.49C263.83 1095.6 263.679 1097.12 262.467 1097.69C250.319 1103.43 243.616 1088.15 255.091 1081.16Z"/><path fill="#050E0D" d="M254.988 1084.13C257.781 1084.06 260.316 1084.13 261.44 1086.98L260.829 1088.26C258.577 1088.34 255.954 1088.68 253.935 1087.86L253.589 1086.76L254.988 1084.13Z"/><path fill="#ADBACA" d="M441.005 1072.76L443.243 1073.51C444.743 1075.85 444.328 1080.03 444.342 1083.02C458.112 1075.69 457.299 1094.56 453.73 1097.86L452.697 1097.37C451.352 1094.6 451.825 1091.89 451.955 1088.72C451.789 1086.28 451.662 1086.04 450.236 1084.57C448.154 1084.14 448.26 1084.09 446.13 1084.85C441.712 1088.99 446.53 1097.45 442.274 1099.64C439.585 1095.27 440.462 1078.31 441.005 1072.76Z"/><path fill="#ADBACA" d="M401.41 1081.03C409.747 1082.64 399.809 1092.11 407.839 1096C416.27 1094.21 410.17 1086.34 413.418 1081.78L414.883 1081.54L415.923 1082.36L415.968 1084.81C416.021 1087.79 416.779 1096.49 414.837 1098.25C410.916 1098.51 406.114 1099.01 402.569 1097.22C400.428 1093.44 401.271 1085.64 401.41 1081.03Z"/><path fill="#ADBACA" d="M232.658 1074.08C233.964 1074.31 234.227 1074.41 235.492 1074.81C237.152 1077.94 236.445 1090.82 236.455 1095.37C239.921 1095.25 244.183 1094.61 247.07 1096.12L247.773 1098.57L232.532 1098.64C232.506 1090.45 232.549 1082.27 232.658 1074.08Z"/><path fill="#ADBACA" d="M365.092 1074.02L367.652 1074.72C369.529 1077.63 368.719 1091.01 368.68 1095.44C372.142 1095.32 376.294 1094.71 379.258 1096.09L379.992 1098.41C376.014 1098.76 369.221 1098.6 365.034 1098.64L365.092 1074.02Z"/><path fill="#ADBACA" d="M303.203 1081.87L304.384 1082.72C307.792 1081.53 309.903 1080.77 313.309 1082.24C316.876 1085.77 316.163 1093.72 314.108 1097.91L313.082 1098.55C310.471 1095.25 313.664 1087.67 309.368 1084.22C306.946 1083.96 305.639 1084.94 304.038 1086.67C303.121 1084.4 302.931 1084.22 303.203 1081.87Z"/><path fill="#ADBACA" d="M295.209 1080.82C295.917 1081.12 296.366 1081.55 297.008 1082.04L296.965 1083.35C295.24 1084.38 293.68 1085.39 292.001 1086.5C288.829 1091.78 294.024 1096.1 288.563 1099.47C286.988 1096.85 287.264 1085.44 287.947 1082.27C292.529 1080.43 288.756 1084.39 295.209 1080.82Z"/><path fill="#ADBACA" d="M304.038 1086.67C304.074 1091.21 304.031 1093.79 303.512 1098.27L302.377 1099.14C299.883 1096.1 298.993 1084.44 301.352 1081.81L303.203 1081.87C302.931 1084.22 303.121 1084.4 304.038 1086.67Z"/><path fill="#041613" d="M731.214 626.288C740.405 625.793 752.241 626.153 761.669 626.154L818.623 626.158L993.108 626.168L1156.94 626.192L1203.68 626.124C1213.3 626.067 1222.77 626.028 1232.44 626.206C1248.65 626.37 1265.5 640.534 1267.48 656.913C1269.43 672.916 1268.54 692.242 1268.52 708.672L1268.52 809.645L1268.56 1008.48L1268.56 1073.48C1268.56 1085.24 1268.68 1096.97 1268.38 1108.73C1267.89 1128.42 1254.57 1142.44 1235.53 1145.99C1228.18 1146.76 1214.89 1146.34 1207.02 1146.33L1155.83 1146.3L985.763 1146.3L813.977 1146.3L760.652 1146.33C740.179 1146.34 719.975 1149.83 706.069 1131.99C695.261 1118.12 697.662 1103.72 697.666 1087.25L697.699 1039.86L697.728 889.921L697.701 739.156L697.583 692.314C697.553 680.999 696.743 667.069 698.517 656.047C701.184 639.47 715.595 628.62 731.214 626.288Z"/><path fill="white" d="M1050.27 834.021C1061.62 833.317 1073.01 834.636 1083.91 837.916C1119.12 848.747 1139.86 879.127 1128.49 915.568C1132.84 920.579 1148.81 935.807 1148.52 941.029C1148.45 942.368 1147.81 943.614 1146.77 944.458C1140.98 949.239 1113.66 945.946 1105.67 944.831C1096.56 950.822 1091.07 953.127 1080.6 956.098C1054.34 962.999 1021.89 958.831 1000.67 941.109C975.756 920.31 972.014 883.835 993.689 859.261C1008.41 842.567 1028.57 835.609 1050.27 834.021Z"/><path fill="#041613" d="M1047.6 844.404C1059.65 843.203 1071.81 844.589 1083.28 848.467C1115.23 859.371 1128.83 885.185 1117.75 917.141C1120.43 921.693 1130.41 932.398 1134.49 936.958C1121.72 937.206 1116.41 936.621 1104.3 933.847C1095.43 939.696 1090.41 942.632 1080.34 945.774C1057.23 952.615 1028.36 949.65 1008.86 934.818C987.282 918.4 982.637 888.71 999.843 867.329C1011.6 852.725 1029.49 846.319 1047.6 844.404Z"/><path fill="white" d="M1024.98 888.801C1029.25 887.529 1033.76 889.905 1035.12 894.15C1036.48 898.394 1034.21 902.951 1029.99 904.406C1027.18 905.376 1024.07 904.751 1021.85 902.772C1019.64 900.792 1018.67 897.769 1019.31 894.87C1019.96 891.971 1022.13 889.649 1024.98 888.801Z"/><path fill="white" d="M1081.35 888.825C1085.58 887.755 1089.91 890.215 1091.15 894.4C1092.39 898.585 1090.11 903.003 1085.97 904.413C1083.15 905.377 1080.02 904.717 1077.83 902.692C1075.63 900.666 1074.73 897.602 1075.46 894.709C1076.2 891.815 1078.46 889.557 1081.35 888.825Z"/><path fill="white" d="M1053.5 888.833C1057.84 887.783 1062.21 890.446 1063.27 894.783C1064.32 899.12 1061.66 903.493 1057.33 904.553C1052.98 905.614 1048.6 902.951 1047.55 898.607C1046.49 894.263 1049.16 889.885 1053.5 888.833Z"/><path fill="#00C5CE" d="M956.478 705.146C969.319 703.126 996.71 706.071 1009.49 708.884C1066.57 721.451 1103.82 770.859 1090.24 829.616C1086.52 828.836 1084.56 828.22 1080.96 826.991C1095.01 769.517 1051.42 723.527 996.358 716.528C968.706 713.013 943.807 713.921 916.897 721.986C876.278 734.158 843.013 767.473 845.619 812.019C846.155 821.117 848.146 828.258 850.827 836.859C852.147 843.713 834.048 862.212 828.905 867.98C845.363 868.365 851.023 868.617 867.198 865.335C873.526 869.687 878.277 874.65 885.883 879.373C914.823 897.344 937.868 896.27 969.113 898.602C970.924 900.562 971.173 903.073 970.38 905.563C968.805 907.38 966.508 908.044 964.139 908.059C926.742 908.298 893.595 900.835 865.036 875.768C856.615 877.125 820.946 880.521 815.497 876.317C814.397 875.469 813.797 874.455 813.628 873.078C813.392 871.147 814.518 869.09 815.606 867.576C818.946 862.924 823.721 858.848 827.691 854.696C832.586 849.575 836.901 844.182 841.033 838.433C838.457 830.488 836.82 822.269 836.156 813.944C834.256 789.393 842.302 765.583 858.597 747.195C884.073 718.446 919.67 707.772 956.478 705.146Z"/><path fill="white" d="M847.551 1005.06C850.257 1004.82 854.174 1004.64 856.737 1005.46C861.025 1006.85 864.563 1009.92 866.536 1013.97C868.918 1018.97 869.131 1024.72 867.125 1029.88C864.894 1035.45 861.613 1037.7 856.481 1039.91C853.718 1040.19 849.904 1040.37 847.253 1039.56C842.922 1038.22 839.35 1035.13 837.396 1031.03C832.268 1020.35 836.863 1009.64 847.551 1005.06Z"/><path fill="#050E0D" d="M851.424 1011.54C863.625 1013.34 863.715 1029.86 852.793 1033.79C847.808 1033.11 845.037 1030.89 843.752 1025.84C842.879 1022.42 843.402 1018.78 845.206 1015.74C846.885 1012.94 848.413 1012.36 851.424 1011.54Z"/><path fill="white" d="M819.212 1005.45L829.468 1005.53C829.571 1015.82 830.086 1027.73 829.243 1037.91C829.163 1038.87 829.059 1038.61 828.022 1039.35C826.2 1039.5 825.044 1039.79 823.385 1039.04C821.67 1036.01 822.407 1030.39 822.537 1026.66C822.383 1023.4 822.539 1019.34 822.587 1016.02C820.965 1021.18 816.824 1040.52 810.621 1039.78C806.216 1036.57 802.715 1023.32 800.807 1017.59C800.85 1023.22 802.222 1034.66 799.306 1038.75C797.621 1039.81 795.468 1040.21 793.974 1038.73C792.878 1032.58 793.491 1012.41 793.529 1005.49L804.005 1005.52C806.693 1013.14 809.227 1020.82 811.605 1028.54L819.212 1005.45Z"/><path fill="white" d="M988.567 1005.45C999.737 1005.23 1021.32 1003.52 1010.14 1021.66C1014.28 1026.92 1015.26 1027.55 1013.82 1034.08C1008.2 1041.73 997.215 1039.74 988.581 1039.57L988.567 1005.45Z"/><path fill="#050E0D" d="M996.077 1025.18C1000.26 1025.12 1003.81 1024.4 1006.53 1027.88C1006.91 1030.17 1006.69 1030.37 1005.76 1032.61C1002.23 1033.55 999.737 1033.41 996.096 1033.43L996.077 1025.18Z"/><path fill="#050E0D" d="M996.193 1011.99C997.109 1011.96 998.026 1011.94 998.943 1011.93C1001.6 1011.92 1003.07 1011.78 1004.98 1013.67C1005.65 1016.43 1005.48 1015.5 1004.56 1018.56C1001.43 1019.26 999.421 1020.14 996.829 1018.56C995.639 1016.5 996.072 1014.47 996.193 1011.99Z"/><path fill="white" d="M1087.17 1005.48C1093.46 1005.4 1109.11 1003.61 1111.55 1011.61C1113.2 1017.03 1110.54 1017.54 1108.53 1021.39C1109.09 1026.53 1115.63 1023.68 1112 1034.82C1106.32 1041.45 1095.14 1039.74 1087.09 1039.58L1087.17 1005.48Z"/><path fill="#050E0D" d="M1094.74 1025.22C1098.73 1025.14 1102.75 1024.45 1105.2 1027.94C1105.52 1030.22 1105.21 1030.56 1104.32 1032.8C1101.23 1033.44 1097.87 1033.39 1094.69 1033.49L1094.74 1025.22Z"/><path fill="#050E0D" d="M1094.7 1011.95C1097.86 1011.88 1101.13 1011.38 1103.46 1013.48C1104.41 1015.49 1104.04 1016.16 1103.58 1018.35C1100.45 1019.18 1098.35 1019.97 1095.56 1018.64C1094.16 1016.55 1094.6 1014.58 1094.7 1011.95Z"/><path fill="white" d="M1055.38 1005.48C1061.51 1005.36 1068.8 1004.81 1074.61 1006.8C1083.65 1009.9 1079.4 1015.38 1076.73 1021.37C1077.68 1027.12 1083.88 1023.25 1080.09 1034.87C1073.75 1041.42 1063.96 1039.71 1055.41 1039.56C1055.23 1028.32 1055.38 1016.75 1055.38 1005.48Z"/><path fill="#050E0D" d="M1062.85 1025.2C1067.01 1025.14 1070.63 1024.43 1073.25 1027.95C1073.57 1030.22 1073.21 1030.66 1072.35 1032.75C1069.17 1033.43 1066.05 1033.4 1062.79 1033.51L1062.85 1025.2Z"/><path fill="#050E0D" d="M1062.79 1011.88C1065.9 1011.83 1069.01 1011.39 1071.39 1013.31C1072.46 1015.47 1072.2 1015.83 1071.7 1018.35C1068.58 1019.16 1066.45 1019.96 1063.69 1018.61C1062.32 1016.54 1062.73 1014.48 1062.79 1011.88Z"/><path fill="white" d="M874.373 1005.51C884.436 1005.39 902.183 1002.7 899.295 1019.46C898.72 1022.79 896.12 1024.65 893.458 1026.4C895.579 1030.36 900.005 1035.27 899.722 1038.66C897.718 1040.13 896.441 1039.6 893.522 1039.61C888.871 1037.94 889.746 1029.12 883.92 1027.47C878.607 1029.03 885.004 1033.01 881.281 1038.64C878.544 1040.09 877.74 1039.56 874.37 1039.5L874.373 1005.51Z"/><path fill="#050E0D" d="M882.11 1012.13C886.16 1012.03 889.408 1011.4 891.609 1015.22C891.697 1017.77 891.561 1017.9 890.467 1020.29C887.417 1021.18 885.543 1022.07 882.78 1020.41C881.565 1018.03 882.022 1014.95 882.11 1012.13Z"/><path fill="white" d="M937.488 1005.51C940.742 1005.41 942.043 1004.97 944.426 1006.66C945.866 1009.51 945.181 1015.17 945.15 1018.87L958.634 1018.72C958.746 1014.45 957.471 1009.52 959.602 1006.49C961.61 1005.32 964.182 1004.91 965.964 1006.56C967.053 1012.81 966.361 1032.46 966.264 1039.57C962.767 1039.71 961.538 1040.21 959.166 1038.14C957.91 1035.16 958.616 1029.39 958.676 1025.65L945.056 1025.63L945.131 1029.03C945.203 1032.83 945.947 1036.86 943.473 1039.43C941.379 1039.51 939.649 1039.86 937.942 1038.81C936.784 1033.67 937.418 1012.09 937.488 1005.51Z"/><path fill="white" d="M906.517 1005.49C908.054 1005.47 914.222 1005.59 915.454 1005.38C932.703 1002.38 938.956 1023.52 922.168 1028.4L914.151 1028.6C914.153 1032.03 914.402 1035.9 913.522 1039.14C911.73 1039.7 908.447 1039.58 906.877 1038.51C906.002 1034.49 906.485 1011.32 906.517 1005.49Z"/><path fill="#050E0D" d="M914.003 1012.1C918.169 1011.99 921.352 1011.4 923.807 1015.17C924.246 1017.87 923.91 1018.27 922.966 1020.96C919.845 1022.01 917.78 1022.89 914.965 1021.05C913.667 1018.62 914.02 1015.03 914.003 1012.1Z"/><path fill="white" d="M1020.09 1005.47C1022.83 1005.41 1024.43 1005.43 1027.15 1005.69C1029.73 1009.57 1023.75 1032.39 1032.59 1033.36C1047.84 1035.03 1035.63 1011.32 1042.66 1005.58C1045.13 1005.29 1045.07 1005.27 1047.49 1005.75C1048.4 1007.45 1048.12 1011.04 1048.12 1013.16C1048.17 1018.44 1049.3 1031.68 1044.92 1036.11C1037.89 1043.24 1021.74 1041.41 1020.43 1029.75C1019.66 1022.76 1020.01 1013.28 1020.09 1005.47Z"/><path fill="white" d="M1145.56 1005.51C1150.62 1005.41 1165.78 1003.75 1168.39 1008.02C1166.93 1013.95 1159.01 1011.87 1154.38 1012.51L1153.54 1013.62C1153.34 1015.55 1152.88 1017.09 1153.86 1018.64C1156.61 1019.92 1161.17 1018.95 1165.15 1019.36C1165.99 1020.47 1166.03 1022.28 1165.63 1023.52C1164 1028.57 1157.23 1023.33 1153.1 1026.42C1153.06 1029.24 1152.92 1030.01 1153.64 1032.68C1158.78 1034.69 1165.15 1030.7 1167.93 1034.73C1168.04 1036.85 1168.16 1036.83 1167.05 1038.74C1164.37 1040.35 1149.94 1039.6 1145.53 1039.56L1145.56 1005.51Z"/><path fill="#00C5CE" d="M914.99 792.45C920.801 791.501 926.295 795.402 927.316 801.201C928.336 807 924.504 812.541 918.718 813.633C914.911 814.352 911.011 812.967 908.51 810.009C906.008 807.051 905.291 802.976 906.632 799.341C907.974 795.707 911.166 793.075 914.99 792.45Z"/><path fill="#ADBACA" d="M866.791 1081.05C867.623 1077.91 867.655 1076.35 870.149 1074.59L871.479 1074.85C874.555 1078.11 876.385 1088.49 877.503 1093.26C878.346 1089.9 881.447 1076.58 882.941 1074.67L884.097 1074.64C886.085 1077.71 882.044 1098.21 876.911 1098.57C873.992 1096.09 871.64 1084.14 870.524 1079.84C869.464 1083.8 866.873 1097.12 864.154 1098.81L862.877 1098.49C859.681 1095.16 854.25 1077.56 856.692 1074.43L858.232 1074.83C860.022 1076.44 860.078 1078.6 860.587 1081.1C862.978 1080.62 864.438 1080.2 866.791 1081.05Z"/><path fill="#050E0D" d="M860.587 1081.1C862.978 1080.62 864.438 1080.2 866.791 1081.05L863.72 1093.55L860.587 1081.1Z"/><path fill="#00C5CE" d="M961.248 792.501C967.101 791.441 972.697 795.349 973.717 801.208C974.737 807.067 970.791 812.637 964.925 813.617C959.115 814.588 953.61 810.688 952.599 804.885C951.589 799.081 955.452 793.55 961.248 792.501Z"/><path fill="#00C5CE" d="M1007.2 792.485C1012.94 791.55 1018.37 795.367 1019.44 801.08C1020.51 806.793 1016.82 812.314 1011.13 813.513C1007.33 814.313 1003.4 812.994 1000.85 810.066C998.302 807.138 997.541 803.06 998.859 799.409C1000.18 795.759 1003.37 793.109 1007.2 792.485Z"/><path fill="white" d="M1119.27 1005.48C1121.38 1005.45 1124.8 1005.16 1126.35 1006.33C1127.07 1011.47 1126.62 1027.01 1126.58 1032.94C1130.66 1032.88 1135.93 1032.12 1139.22 1033.57C1140.83 1035.82 1140.29 1036.39 1140.32 1039.56C1133.33 1039.63 1126.34 1039.62 1119.35 1039.53C1119.24 1028.18 1119.22 1016.83 1119.27 1005.48Z"/><path fill="#ADBACA" d="M931.264 1073.18C932.317 1073.46 933.695 1073.54 933.966 1074.33C935.353 1078.34 934.881 1095.52 933.85 1098.55C929.815 1099.42 933.232 1097.48 930.95 1097.73C926.372 1098.22 927.245 1099.59 922.315 1098.54C916.044 1092.75 916.035 1078.64 929.552 1082.11L930.634 1082.39C931.477 1080.85 931.244 1075.28 931.264 1073.18Z"/><path fill="#050E0D" d="M924.242 1084.24C932.462 1084.08 932.518 1089.89 929.297 1095.63C927.806 1095.86 925.871 1096.05 924.525 1095.29C923.381 1094.64 922.557 1093.55 922.246 1092.27C921.474 1089.17 922.646 1086.75 924.242 1084.24Z"/><path fill="#00C5CE" d="M1167.65 857.317C1170.26 858.358 1170.35 858.379 1171.59 860.446C1170.78 872.461 1175.61 864.276 1180.49 869.005C1181.11 871.34 1181.31 870.353 1180.37 872.134C1178.95 873.021 1178.46 873.354 1176.72 873.48C1168.6 874.065 1174.57 877.94 1169.92 883.667C1167.8 883.051 1167.69 883.166 1166.07 881.573C1165.32 879.124 1165.49 877.314 1165.49 874.774C1163.86 872.443 1160.61 874.981 1157.13 872.172C1156.35 869.974 1156.32 871.029 1157.2 868.901C1159.75 866.834 1160.12 867.498 1162.79 866.822C1167.48 865.633 1163.61 862.311 1167.65 857.317Z"/><path fill="#ADBACA" d="M892.688 1081.61C897.381 1080.33 902.219 1083.11 903.467 1087.81C904.715 1092.51 901.897 1097.33 897.187 1098.55C892.523 1099.75 887.761 1096.97 886.524 1092.31C885.288 1087.66 888.041 1082.88 892.688 1081.61Z"/><path fill="#050E0D" d="M892.853 1084.11C901.059 1084.3 901.561 1091.01 896.835 1096.16C895.388 1096.11 894.08 1096.11 892.827 1095.33C891.577 1094.55 890.708 1093.29 890.428 1091.85C889.827 1088.77 891.162 1086.47 892.853 1084.11Z"/><path fill="#ADBACA" d="M1049.19 1081.08C1060.96 1081.35 1062.72 1093.66 1053.05 1099.01C1039.76 1098.83 1038.53 1085.49 1049.19 1081.08Z"/><path fill="#050E0D" d="M1048.3 1084.1C1056.61 1084.21 1057.29 1090.12 1052.95 1095.91C1044.51 1096.02 1044.64 1089.72 1048.3 1084.1Z"/><path fill="#ADBACA" d="M981.248 1086.57L979.478 1085.43C979.483 1080.71 987.815 1079.68 990.706 1082.95C993.294 1085.87 993.341 1095.51 992.127 1098.44L990.868 1098.91C987.665 1097.19 988.785 1097.4 985.044 1098.43C981.428 1099.43 979.135 1098.75 977.647 1095.18C977.879 1091.4 979.068 1089.35 982.995 1088.53L981.248 1086.57Z"/><path fill="#050E0D" d="M981.248 1086.57C983.611 1084.38 982.521 1084.83 985.485 1084.25C988.076 1085.13 987.214 1084.34 988.489 1086.29C987.306 1088.98 985.779 1088.5 982.995 1088.53L981.248 1086.57Z"/><path fill="#050E0D" d="M983.385 1090.91C986.171 1090.85 986.884 1090.53 988.601 1092.06C988.576 1094.12 987.716 1094.78 986.406 1096.41C983.58 1096.13 983.119 1096.06 981.469 1094.18C981.874 1091.78 981.411 1092.92 983.385 1090.91Z"/><path fill="#00C5CE" d="M799.928 703.28C803.851 702.065 808.019 704.246 809.257 708.162C810.495 712.078 808.337 716.258 804.427 717.518C800.487 718.787 796.266 716.608 795.019 712.661C793.772 708.714 795.974 704.506 799.928 703.28Z"/><path fill="#ADBACA" d="M1004.05 1081.08C1016.47 1080.95 1012.9 1096.71 1009.54 1098.38C1004.75 1094.34 1013.01 1089.4 1004.54 1083.34C996.111 1088.89 1004.23 1094.32 998.675 1098.88L997.698 1098.65C996.562 1096.44 996.46 1084.45 997.694 1082.64C1001.48 1081.93 1000.67 1083.02 1004.05 1081.08Z"/><path fill="#ADBACA" d="M1090.09 1084.96C1089.35 1090.18 1090.67 1096.22 1087.86 1099.18C1085.65 1096.85 1087.8 1088.56 1084.13 1084.35C1081.93 1083.85 1083 1083.78 1080.82 1084.72C1076.97 1088.98 1080.76 1092.86 1078.95 1097.93C1077.36 1098.8 1078.23 1098.59 1076.17 1098.19C1074.97 1096.47 1075.67 1084.84 1075.9 1082.43C1079.33 1080.65 1086.3 1080.47 1089.17 1084.13C1089.82 1084.97 1089.45 1084.79 1090.09 1084.96Z"/><path fill="#ADBACA" d="M946.938 1074.77C950.354 1074.5 963.706 1073.84 965.796 1075.57L965.847 1076.86C963.091 1078.95 963.08 1076.8 959.037 1078.13C958.211 1080.78 958.615 1087.9 958.674 1091.06C958.765 1094.37 959.61 1097 956.801 1099.03L956.047 1098.61C954.042 1094.4 954.75 1082.87 954.826 1077.75C950.252 1077.92 948.674 1079.08 946.938 1074.77Z"/><path fill="#ADBACA" d="M1019.68 1081.12C1022.86 1081.01 1027.02 1080.87 1028.41 1084.47C1026.06 1085.71 1022.93 1084.03 1019.39 1085.05C1019.51 1087.73 1025.4 1088.94 1028.89 1092.29C1030.38 1096.67 1027.69 1097.61 1023.98 1099.12C1020.75 1098.9 1017.12 1098.68 1015.39 1095.66L1015.96 1094.21C1018.96 1093.4 1019.44 1096.47 1023.51 1096.13C1025.21 1094.82 1024.75 1095.64 1025.18 1093.77C1022.4 1090.05 1015.33 1090.93 1015.8 1085.02C1017.05 1082.74 1017.46 1082.64 1019.68 1081.12Z"/><path fill="#ADBACA" d="M1037.23 1073.11C1040.07 1073.5 1040.12 1072.98 1041.35 1074.6L1041.13 1075.86C1038 1076.92 1037.76 1076.66 1036.92 1079.85C1038.05 1083.12 1038.59 1080.01 1040.82 1082.7L1040.52 1084.08C1038.93 1084.34 1038.93 1084.32 1037.48 1085C1036.79 1087.66 1037.04 1094.31 1037.06 1097.4L1036.42 1098.4L1034.53 1098.71C1032.06 1095.43 1034.49 1088.98 1033.45 1084.79L1031.58 1084L1031.2 1082.72C1033.52 1078.48 1033.78 1075.51 1037.23 1073.11Z"/><path fill="#ADBACA" d="M914.649 1080.76C915.778 1081.24 915.572 1081.23 916.543 1082.07C916.409 1084.12 913.897 1084.67 911.135 1087.19C908.85 1092.71 913.24 1096.02 908.231 1099.43C906.653 1096.31 906.51 1085.95 907.126 1082.51C911.085 1080.25 908.474 1084.66 914.649 1080.76Z"/><path fill="#ADBACA" d="M1062.68 1084.41L1062.95 1082.46C1064.5 1081.56 1070.42 1081.48 1072.14 1082.27C1071.68 1084.75 1069.39 1084.88 1067.11 1085.59C1065.92 1090.3 1066.94 1093.22 1065.9 1098C1064.62 1098.77 1065.32 1098.59 1063.69 1098.23C1062.22 1095.39 1062.67 1087.89 1062.68 1084.41Z"/><path fill="#ADBACA" d="M1062.68 1084.41L1062.95 1082.46C1064.5 1081.56 1070.42 1081.48 1072.14 1082.27C1071.68 1084.75 1069.39 1084.88 1067.11 1085.59C1065.64 1084.59 1065.79 1083.94 1064.5 1082.77L1062.68 1084.41Z"/><path fill="#ADBACA" d="M1089.17 1084.13C1100.82 1072.95 1102.47 1094.62 1099.08 1098.13L1097.79 1098.41C1095 1093.75 1100.28 1082.02 1090.09 1084.96C1089.45 1084.79 1089.82 1084.97 1089.17 1084.13Z"/><path fill="#ADBACA" d="M974.139 1080.75C975.647 1081.38 975.086 1081.04 976.201 1082.42C975.659 1084.15 973.182 1084.76 970.728 1086.67C968.806 1091.6 971.915 1095.63 968.185 1099.33C965.737 1097.05 965.555 1084 967.571 1081.54C969.441 1081.62 968.512 1081.36 970.226 1083.16L974.139 1080.75Z"/></svg>