<?xml version="1.0" encoding="utf-8" ?><svg xmlns="http://www.w3.org/2000/svg" xmlns:xlink="http://www.w3.org/1999/xlink" width="512" height="512" viewBox="0 0 512 512"><path fill="white" d="M40.2579 0L204.455 0C206.46 1.26284 211.989 1.79199 214.658 2.73487C227.789 7.37276 237.945 18.1662 242.171 31.382C244.42 38.7582 245.409 49.3132 246.306 57.033L249.283 81.5174L258.77 157.624L279.548 325.581L286.293 379.968C287.346 388.51 288.485 397.086 289.454 405.633C289.769 408.411 289.204 411.241 287.957 413.587C286.95 415.482 282.919 421.367 280.836 421.711C276.931 422.356 270.611 422.15 266.586 422.143L246.826 422.131L154.629 422.144L81.4274 422.136L58.9207 422.104C46.0057 422.083 33.3029 422.635 21.8808 415.457C12.8648 409.79 5.09052 400.815 2.29896 390.355C1.83296 388.551 0.800353 382.516 0 381.435L0 40.5148C0.547179 39.8416 2.68672 30.2972 3.2874 28.6548C8.33918 14.8418 20.8048 4.02331 35.2899 1.27383C36.5937 1.02635 39.1812 0.584148 40.2579 0ZM149.063 226.95C151.458 226.814 154.544 226.373 156.545 227.723C157.526 229.15 158.137 234.316 158.532 236.336L162.745 257.246C165.225 269.762 166.629 295.068 189.424 284.16C192.348 282.761 195.508 277.191 195.71 274.015C194.854 261.884 190.775 244.595 188.399 232.756L175.851 170.185L169.506 138.296C168.319 132.267 167.197 126.268 165.846 120.244C164.275 113.244 159.627 107.88 152.132 107.349C143.751 106.755 135.127 107.104 126.72 106.98C125.459 106.97 123.86 106.977 122.629 107.104C112.773 107.808 107.66 109.662 105.184 119.971C103.045 128.871 101.468 137.755 99.697 146.727L90.9597 190.542L80.77 241.503C79.1707 249.401 77.2665 257.306 75.8189 265.23C74.5325 272.545 74.714 279.143 81.1457 283.992C87.1509 288.52 97.3897 287.531 101.631 281.136C105.113 275.886 106.14 267.738 107.346 261.568L111.745 238.855C112.117 236.935 113.618 228.212 114.588 227.337C117.01 226.913 124.709 227.148 127.642 227.169C134.783 227.292 141.926 227.219 149.063 226.95Z"/><path fill="white" d="M132.768 137.057C134.301 136.974 136.806 136.601 138.123 137.472C139.892 138.642 149.053 189.413 150.665 196.739C146.779 197.15 142.225 197.1 138.313 197.1C132.335 196.983 126.357 196.925 120.379 196.928C123.405 178.796 127.769 160.589 131.033 142.481C131.35 140.719 131.654 138.448 132.768 137.057Z"/><path fill="white" d="M280.782 91.2585C285.049 90.7659 289.706 90.9057 294.016 90.8351C303.53 90.6794 313.425 91.2225 322.895 91.1818L420.98 91.0036C428.199 91.0071 435.601 91.0445 442.805 90.9856C452.652 90.905 470.064 90.1713 479.251 92.9116C493.493 97.2663 504.73 108.27 509.382 122.416C510.255 125.044 510.875 131.041 512 132.826L512 471.207C511.385 472.229 510.783 475.817 510.492 477.174C506.859 494.117 492.554 507.69 475.604 510.932C474.513 511.141 472.987 511.512 471.997 512L242.814 512C244.332 509.919 246.827 507.152 248.562 505.131C252.007 501.108 255.48 497.109 258.982 493.135L291.251 456.263C297.436 449.183 303.587 442.379 309.426 435.004C321.35 419.945 320.056 406.758 317.855 389.015L315.442 369.72L306.979 301.887L287.911 149.031L282.881 108.565C282.174 102.859 281.604 96.9127 280.782 91.2585ZM390.728 226.765C380.981 227.274 371.089 226.903 361.351 227.028C355.122 227.108 348.218 226.546 342.194 227.822C330.683 230.258 327.312 245.47 336.116 253.055C341.117 257.363 344.382 256.246 349.959 257.192C351.913 262.491 353.799 268.229 355.917 273.416C360.706 284.884 366.51 295.902 373.261 306.337C375.567 309.881 378.015 313.33 380.599 316.677C381.769 318.215 384.108 321.084 384.968 322.532L384.745 322.772C383.032 324.578 381.186 325.957 379.396 327.678C370.143 336.574 356.856 344.232 348.614 353.72C341.256 362.189 349.869 378.14 361.129 376.758C364.284 376.552 366.373 376.127 369.107 374.312C373.753 371.227 378.052 367.504 382.426 364.053C389.25 358.668 395.633 352.751 402.418 347.32C403.545 346.414 404.676 345.496 405.964 344.829C406.604 345.205 407.482 345.685 408.081 346.082C416.114 353.069 424.623 360.071 433.063 366.389C438.929 370.781 445.324 377.551 452.87 376.737C466.895 375.224 471.87 359.003 460.726 349.807C456.103 345.993 428.166 325.379 427.6 322.358C428.477 320.026 435.574 311.197 437.522 308.454C440.741 303.834 443.76 299.078 446.571 294.199C450.874 286.882 454.619 279.251 457.776 271.371C459.163 267.836 461.671 259.838 463.123 257.185C469.266 256.523 474.069 256.67 478.392 251.416C483.528 245.172 482.567 235.16 476.22 230.134C471.478 226.379 464.101 226.985 458.355 227.017C454 227.047 449.646 227.038 445.291 226.993C440.512 226.954 435.732 226.89 430.953 226.802C428.173 226.756 423.946 226.594 421.269 226.94C420.215 218.131 423.272 206.859 415.48 200.449C412.647 198.075 408.984 196.928 405.302 197.264C405.107 197.292 404.912 197.32 404.717 197.348C387.695 199.183 391.744 215.048 390.728 226.765Z"/><path fill="white" d="M389.91 256.858C392.897 256.577 397.794 257.015 401.105 257.011C411.277 256.945 421.449 256.994 431.619 257.157C429.77 260.952 428.272 264.981 426.383 268.747C422.671 276.147 418.28 283.132 413.707 290.017C411.388 293.126 408.201 297.149 406.192 300.342C396.262 289.37 386.802 271.01 381.543 257.173C384.417 257.154 387.043 257.02 389.91 256.858Z"/><path fill="white" d="M189.818 451.862C206.014 451.567 222.616 452.698 238.897 452.046C244.038 451.84 249.289 452.257 254.428 452.155C251.391 454.264 245.446 461.637 242.645 464.651C235.362 472.489 228.24 480.694 220.915 488.495C216.269 493.717 211.465 498.822 206.911 504.137C205.99 505.211 204.719 506.437 203.541 507.219C198.743 504.791 196.863 503.511 192.698 500.06C178.74 488.496 176.397 469.409 175.444 452.219C180.36 452.122 184.869 452.092 189.818 451.862Z"/></svg>