<?xml version="1.0" encoding="utf-8" ?><svg xmlns="http://www.w3.org/2000/svg" xmlns:xlink="http://www.w3.org/1999/xlink" width="366" height="371" viewBox="0 0 366 371"><path fill="#ABD822" d="M169.422 111.352C171.181 111.077 174.692 111.182 176.602 111.128C186.406 110.848 196.012 112.325 205.432 115.176C224.446 121.065 240.615 133.766 250.839 150.844C253.421 155.075 255.491 160.138 257.873 164.587C247.102 167.416 240.057 171.672 231.452 178.78C228.645 171.729 226.857 166.638 222.29 160.361C204.824 136.354 169.396 132.162 145.723 149.366C134.68 157.391 128.653 168.568 126.179 181.833C121.163 208.729 139.063 235.414 165.897 240.698C169.915 241.49 174.138 241.022 178.136 241.295C191.476 242.209 202.319 238.436 213.001 230.56C222.956 223.157 226.612 215.685 231.781 204.886C235.706 209.759 243.483 214.264 249.418 215.964C252.082 216.727 254.937 217.311 257.509 218.271L257.811 218.386C254.963 226.605 250.649 233.139 245.427 239.755C231.995 256.776 209.548 268.34 187.962 269.972C184.63 270.224 180.477 270.82 177.07 270.713C158.256 270.122 139.935 264.122 125.224 252.299C109.467 239.544 98.5249 220.421 96.4406 200.162C94.1587 177.982 99.8584 157.417 114.165 140.114C128.49 122.789 147.106 113.418 169.422 111.352Z"/><path fill="#FEFEFE" d="M159.659 72.6012C160.501 72.499 160.929 72.3648 161.698 72.6756C162.244 73.8285 162.022 84.0857 162.012 86.1652C157.581 87.4866 152.252 88.2518 147.685 89.4247C139.137 91.6204 130.261 95.5318 122.598 99.94C106.979 109.099 93.9144 122.039 84.6067 137.57C79.2175 146.393 75.5537 155.174 72.8202 165.204C71.957 168.371 71.3759 171.59 70.5182 174.767C66.6993 174.739 62.8806 174.681 59.0625 174.594C57.9664 174.585 56.8807 174.648 55.7859 174.698C60.1156 151.282 66.9051 133.842 81.8109 115.361C101.001 91.2744 129.037 75.8748 159.659 72.6012Z"/><path fill="#FEFEFE" d="M55.5883 207.024C60.5946 206.971 65.6012 206.949 70.6078 206.958C71.4929 210.864 72.0864 214.934 73.2564 218.756C84.8895 256.76 117.476 287.336 156.865 294.279C157.802 294.444 161.097 295.041 161.41 295.91C162.566 299.118 162.085 305.945 161.403 309.153C159.543 309.506 153.874 308.443 151.917 308.04C132.596 304.055 114.039 295.112 98.9128 282.443C80.1312 266.921 66.3167 246.229 59.1811 222.932C57.7791 218.324 56.0072 211.816 55.5883 207.024Z"/><path fill="#FEFEFE" d="M196.534 72.3156C215.561 73.7198 233.009 80.4407 248.911 90.8393C270.381 104.928 286.759 125.54 295.632 149.639C296.396 151.745 300.415 163.206 299.427 164.693C294.535 164.897 289.344 164.912 284.44 164.959C282.053 152.928 274 137.324 266.573 127.521C252.373 108.476 232.096 94.8486 209.098 88.894C204.788 87.8071 200.709 87.2548 196.327 86.6482C196.153 82.0146 196.338 76.9406 196.534 72.3156Z"/><path fill="#ABD822" d="M176.345 165.632C190.172 164.273 202.489 174.365 203.876 188.19C205.263 202.014 195.195 214.352 181.373 215.766C167.512 217.184 155.132 207.082 153.742 193.218C152.351 179.355 162.478 166.995 176.345 165.632Z"/><path fill="#FEFEFE" d="M284.685 218.902L299.624 219.012C298.734 222.689 297.947 226.402 296.689 229.973C283.038 268.707 248.712 297.855 209.304 307.467C205.676 308.237 200.161 309.153 196.534 309.354C196.437 305.062 196.175 299.729 196.379 295.514C207.106 292.913 215.176 291.735 225.475 286.749C256.05 271.948 273.258 250.318 284.685 218.902Z"/><path fill="#FEFEFE" d="M261.184 174.107C262.928 173.868 269.149 173.935 271.136 173.935C277.751 173.939 284.367 173.987 290.981 174.08C291.517 177.117 291.629 185.267 291.578 188.666C291.482 194.959 291.735 202.752 291.285 208.958C281.389 208.993 270.526 209.728 260.691 208.929C247.203 207.274 239.306 200.399 229.021 191.964C233.04 188.354 237.629 185.264 242.002 182.101C248.342 177.515 253.254 174.748 261.184 174.107Z"/><path fill="#FEFEFE" d="M175.752 43.2988C180.094 42.9202 182.38 42.931 186.374 44.6544C186.922 50.1846 187.614 93.6484 186.452 95.9628C185.972 96.9179 184.481 97.3961 183.519 97.6851C180.363 97.8431 175.208 98.6172 172.865 96.1007C171.698 92.4689 172.185 50.6395 172.559 45.1631C173.688 44.3519 174.512 43.9417 175.752 43.2988Z"/><path fill="#FEFEFE" d="M175.306 284.384C177.69 284.185 184.033 283.757 185.945 285.125C187.87 288.285 187.045 326.951 186.149 332.594C185.36 333.38 185.064 333.747 184.031 334.237C181.317 334.301 177.845 334.308 175.192 334.107C174.23 333.483 173.571 332.858 172.719 332.097C172.014 328.538 172.215 318.608 172.241 314.519C172.298 305.182 172.088 295.387 172.516 286.108C173.436 285.175 174.038 284.696 175.306 284.384Z"/><path fill="#FEFEFE" d="M36.0764 183.369C44.1939 183.156 52.5579 183.619 60.7761 183.651C65.164 183.668 73.8179 182.75 77.7863 184.55C78.9334 185.071 78.4231 194.951 78.315 196.7C74.7474 196.995 71.8974 196.983 68.3254 196.997L35.9215 197.11C27.0769 197.055 25.0328 196.381 25.5249 187.426C28.5656 183.31 31.3683 183.452 36.0764 183.369Z"/><path fill="#ABD822" d="M300.908 188.834C306.34 188.537 354.023 189.065 355.888 191.286C356.054 192.219 356.148 192.424 355.962 193.323C355.258 193.726 354.227 193.594 353.36 193.584C346.217 193.871 338.212 195.005 331.269 194.97C321.213 194.92 309.725 195.772 299.79 194.917C299.569 192.77 298.759 189.952 300.908 188.834Z"/><path fill="#ABD822" d="M302.304 174.35C314.555 173.917 327.023 176 339.131 177.641C342.858 178.146 353.359 177.67 355.949 179.796L355.965 180.19C355.197 180.994 354.06 180.729 352.97 180.709C345.633 180.332 302.385 181.48 299.915 179.931C299.028 178.561 299.3 176.543 299.369 174.886C300.399 174.6 301.25 174.498 302.304 174.35Z"/><path fill="#ABD822" d="M299.04 204.017C303.172 202.17 327.726 202.98 333.712 203.257C338.71 203.182 345.34 203.087 350.246 203.438L350.138 204.966C348.628 205.448 342.162 205.914 340.169 206.108C331.012 207.842 307.147 210.8 299.03 208.544C298.921 206.95 298.983 205.604 299.04 204.017Z"/><path fill="#7F844A" d="M350.246 203.438C352.338 203.43 354.645 203.378 356.719 203.441C354.532 204.12 352.434 204.727 350.138 204.966L350.246 203.438Z"/></svg>