<?xml version="1.0" encoding="utf-8" ?><svg xmlns="http://www.w3.org/2000/svg" xmlns:xlink="http://www.w3.org/1999/xlink" width="238" height="234" viewBox="0 0 238 234"><clipPath id="cl_4"><rect width="238" height="234"/></clipPath><g clip-path="url(#cl_4)"><path fill="#ffffff" stroke="#ffffff" stroke-width="3" transform="translate(-338 -64)" d="M447.389 75.6277C453.257 74.8096 480.273 75.694 483.317 80.2012C483.315 80.7351 483.445 81.2438 482.917 81.3764C479.853 82.1461 475.112 82.0697 472.018 82.4362C469.889 82.6867 467.776 83.0565 465.689 83.544C449.503 87.2486 436.801 93.7183 424.994 105.552C409.651 120.917 401.016 141.731 400.978 163.445C401.263 185.263 410.194 206.076 425.81 221.315C441.303 236.268 462.089 244.471 483.618 244.128C511.077 243.678 536.454 229.397 551.089 206.158C553.643 202.129 555.829 198.098 557.44 193.604C558.038 191.936 558.888 189.022 560.918 189.019C562.882 190.482 561.495 194.346 561.264 196.566C559.779 210.855 554.647 223.29 548.006 235.82C545.216 240.758 541.995 245.44 538.38 249.811C500.303 295.738 432.624 302.61 386.764 264.172C365.099 245.98 351.525 219.946 349.014 191.768C346.426 163.373 355.274 135.119 373.595 113.272C392.486 90.8675 418.315 78.0983 447.389 75.6277ZM531.986 252.191C547.927 234.257 551.063 224.301 557.405 202.433C553.534 207.663 551.414 211.875 546.987 217.223C533.923 232.822 515.65 243.16 495.55 246.321C447.448 253.449 405.258 221.75 398.593 173.626C395.768 151.685 401.694 129.513 415.09 111.907C425.324 98.4877 439.348 88.4461 455.349 83.0797C459.842 81.5692 465.412 80.3108 470.094 79.1491C466.064 78.7233 462.018 78.4732 457.967 78.3995C452.836 78.4718 448.2 78.4588 443.101 79.0681C419.317 81.9777 397.262 92.9971 380.654 110.27C361.572 130.089 351.199 156.71 351.84 184.215C352.376 211.735 363.838 237.911 383.698 256.97C403.586 276.033 430.252 286.381 457.792 285.722C486.998 285.206 511.887 272.994 531.986 252.191Z"/><path fill="#ffffff" stroke="#ffffff" stroke-width="3" transform="translate(-338 -64)" d="M472.654 109.215C474.778 110.112 479.764 122.29 481.369 125.305C484.904 125.892 497.658 127.211 499.216 129.269C499.111 131.056 488.954 139.813 486.977 142.42C487.927 148.436 489.107 154.291 489.931 160.34C484.561 159.394 478.09 154.957 473.069 152.235C469.459 153.467 462.316 158.446 458.299 159.788C457.325 160.113 457.141 159.917 456.478 159.505C455.503 157.343 458.193 145.035 458.813 142.033C455.27 139.119 451.979 135.465 448.526 132.404C447.374 131.383 446.194 130.252 446.723 128.658C448.289 127.354 460.584 126.024 464.233 125.191C466.348 120.707 469.869 112.956 472.654 109.215ZM451.12 130.571C453.348 132.398 460.61 139.196 462.407 141.344C461.153 146.811 460.744 150.37 459.799 155.752C462.697 153.986 470.484 148.911 473.519 149.124C476.274 150.323 483.966 154.481 486.31 156.198C485.615 152.669 483.125 143.129 484.622 140.342C485.843 138.071 492.446 132.158 494.692 130.509C490.82 130.04 482.837 129.245 479.392 128.32C478.214 126.187 473.682 115.842 472.741 115.081C465.298 130.437 468.906 128.457 451.12 130.571Z"/><path fill="#ffffff" stroke="#ffffff" stroke-width="3" transform="translate(-338 -64)" d="M523.165 141.65C525.538 142.542 528.066 149.14 529.464 151.776C532.269 152.397 535.105 152.769 537.926 153.274C539.339 153.527 540.497 153.801 540.805 155.268C540.069 157.338 535.202 161.348 533.307 163.222C533.538 165.903 534.246 168.579 534.568 171.249C534.768 172.907 535.167 174.335 533.477 175.081C530.905 174.848 526.246 171.543 524.077 169.98C521.925 171.176 514.718 176.088 512.772 174.518C512.094 172.33 513.792 166.141 514.219 163.191C512.446 161.513 506.204 156.82 506.493 154.593C507.757 153.423 515.07 152.583 517.636 152.044C519.588 149.025 521.102 144.037 523.165 141.65ZM519.862 154.799C516.655 155.627 513.799 155.721 510.701 156.474C513.6 158.182 515.311 159.596 517.234 162.465C516.8 165.609 516.49 167.911 515.74 171.008C518.177 169.704 521.59 167.599 524.213 167.259C526.05 167.855 529.749 170.107 531.505 171.196C529.427 161.891 529.138 162.165 536.47 156.199C534.335 155.945 526.999 155.434 526.291 153.592C525.661 151.954 525.475 148.975 523.336 147.138C522.393 149.541 521.292 152.729 519.862 154.799Z"/></g></svg>