<?xml version="1.0" encoding="utf-8" ?><svg xmlns="http://www.w3.org/2000/svg" xmlns:xlink="http://www.w3.org/1999/xlink" width="386" height="364" viewBox="0 0 386 364"><clipPath id="cl_7"><rect width="386" height="364"/></clipPath><g clip-path="url(#cl_7)"><defs><linearGradient id="gradient_0" gradientUnits="userSpaceOnUse" x1="797.55023" y1="1125.6693" x2="921.95624" y2="1079.6454"><stop offset="0" stop-color="#50AAFF"/><stop offset="1" stop-color="#52C9FE"/></linearGradient></defs><path fill="#FF7502" transform="translate(-605 -862)" d="M853.047 1041.31C855.623 1041.07 857.806 1041.21 860.34 1041.21C893.131 1041.28 924.726 1060.68 927.278 1095.72C927.802 1102.93 926.973 1108.45 925.928 1115.54C953.832 1149.46 934.877 1145.46 904.505 1141.96C895.707 1147.54 890.585 1150.61 880.528 1153.88C843.184 1164.43 794.826 1146.2 790.064 1103.54C788.524 1089.74 792.513 1075.13 801.672 1064.58C814.929 1049.32 833.424 1042.94 853.047 1041.31ZM875.219 1143.24C887.03 1139.48 892.204 1136.31 902.592 1129.71C911.611 1131.36 916.86 1132.21 925.803 1133.02C921.971 1127.91 917.674 1122.56 914.954 1116.8C915.857 1099.37 918.796 1086.6 905.711 1072.27C892.862 1058.21 873.84 1051.57 855.182 1052.54C837.913 1054.5 821.869 1058.32 810.35 1072.76C803.744 1081.18 800.845 1091.92 802.319 1102.52C806.472 1134.53 840.94 1148.22 869.813 1144.24C871.627 1143.97 873.43 1143.64 875.219 1143.24Z"/><path fill="#FF7502" transform="translate(-605 -862)" d="M831.254 1089.4C834.136 1088.17 837.456 1088.61 839.923 1090.54C842.391 1092.46 843.617 1095.58 843.125 1098.67C842.633 1101.76 840.501 1104.34 837.557 1105.41C833.174 1107 828.322 1104.81 826.614 1100.47C824.906 1096.13 826.964 1091.23 831.254 1089.4Z"/><path fill="#FF7502" transform="translate(-605 -862)" d="M881.357 1089.41C884.178 1088.26 887.403 1088.74 889.767 1090.66C892.131 1092.58 893.257 1095.64 892.706 1098.64C892.154 1101.63 890.011 1104.09 887.117 1105.04C882.851 1106.45 878.238 1104.22 876.685 1100.01C875.133 1095.79 877.199 1091.11 881.357 1089.41Z"/><path fill="#FF7502" transform="translate(-605 -862)" d="M764.112 920.566C802.68 916.071 852.209 932.96 875.508 965.188C889.683 984.803 895.394 1009.28 891.363 1033.14C889.487 1034.99 888.011 1036.93 885.56 1037.46C882.675 1036.32 882.82 1035.63 880.663 1032.95C880.697 1029.77 880.592 1026.33 880.713 1023.18C883.588 947.932 799.417 919.491 737.999 937.192C700.677 947.949 666.487 976.338 669.398 1019.48C670.01 1028.55 671.747 1035.8 674.285 1044.53C674.939 1049.72 658.841 1067.78 655.076 1072.38C666.523 1070.73 677.94 1068.89 689.323 1066.85C710.214 1085.82 731.009 1094.83 759.235 1097.3C765.362 1097.84 773.449 1096.81 778.86 1099.46C781.263 1100.63 781.519 1101.79 782.153 1103.88C781.141 1109.76 775.611 1110.95 770.404 1110.82C734.753 1109.93 712.935 1100.15 684.609 1080.28C667.105 1082.53 622.935 1095.67 648.309 1061.42C652.31 1056.02 656.388 1050.66 660.442 1045.3C653.46 1013.34 654.534 987.278 676.986 960.929C699.487 934.523 730.248 923.339 764.112 920.566Z"/><path fill="#FF7502" transform="translate(-605 -862)" d="M812.144 1002.42C815.75 1001.26 819.7 1002.14 822.469 1004.73C825.237 1007.31 826.389 1011.19 825.479 1014.87C824.569 1018.54 821.74 1021.44 818.086 1022.43C812.61 1023.92 806.946 1020.77 805.331 1015.33C803.716 1009.89 806.741 1004.16 812.144 1002.42Z"/><path fill="#FF7502" transform="translate(-605 -862)" d="M769.626 1003.16C773.135 1001.81 777.099 1002.51 779.947 1004.96C782.795 1007.41 784.068 1011.22 783.261 1014.89C782.455 1018.56 779.7 1021.49 776.087 1022.53C770.825 1024.03 765.313 1021.12 763.582 1015.93C761.851 1010.74 764.515 1005.11 769.626 1003.16Z"/><path fill="#FF7502" transform="translate(-605 -862)" d="M730.525 1002.45C736.053 1001.79 741.088 1005.68 741.845 1011.19C742.602 1016.71 738.8 1021.81 733.299 1022.67C729.653 1023.23 725.984 1021.79 723.704 1018.89C721.424 1015.99 720.888 1012.08 722.302 1008.67C723.716 1005.26 726.86 1002.88 730.525 1002.45Z"/></g></svg>