<?xml version="1.0" encoding="utf-8" ?><svg xmlns="http://www.w3.org/2000/svg" xmlns:xlink="http://www.w3.org/1999/xlink" width="358" height="350" viewBox="0 0 358 350"><clipPath id="cl_4"><rect width="358" height="350"/></clipPath><g clip-path="url(#cl_4)"><path fill="#FF7502" transform="translate(-85 -245)" d="M243.381 310.029C255.585 309.145 266.117 309.79 278.134 312.152C287.058 313.907 320.948 323.932 317.991 335.564C317.137 336.419 314.688 338.466 313.682 338.233C308.545 336.898 303.24 334.337 298.45 332.114C221.628 296.474 134.353 360.859 149.628 445.52C160.163 503.914 214.692 540.262 271.82 531.24C299.36 527.057 324.076 512.019 340.446 489.487C357.112 466.477 362.817 437.066 358.415 409.225C357.034 399.114 353.111 390.709 349.124 381.54C346.965 376.576 343.256 368.504 349.837 365.599C353.593 365.721 356.203 367.971 358.017 371.144C380.695 410.808 376.086 464.158 348.19 500.111C329.245 524.642 301.246 540.547 270.47 544.258C239.769 548.033 205.141 540.181 180.979 520.212C97.9484 451.589 133.28 322.564 243.381 310.029Z"/><path fill="#FF7502" transform="translate(-85 -245)" d="M247.587 354.316C255.58 352.616 297.297 355.991 290.426 371.372C288.786 375.044 281.957 372.47 278.81 371.35C250.348 361.219 217.737 368.501 201.536 395.517C175.142 441.707 216.969 499.964 270.235 485.226C285.691 481.099 298.793 470.843 306.507 456.831C314.312 442.635 316.06 424.856 311.557 409.332C309.605 404.106 308.237 397.245 315.68 395.562C322.713 396.751 325.302 409.756 326.085 415.676C331.396 455.835 305.924 495.394 263.976 499.614C245.825 501.659 222.576 497.057 208.258 484.564C157.562 440.33 179.473 361.121 247.587 354.316Z"/><path fill="#FF7502" transform="translate(-85 -245)" d="M369.964 279.641C382.272 279.072 377.199 293.439 378.08 301.454C378.315 303.592 378.11 306.562 378.131 308.809C384.982 308.835 398.508 307.831 403.707 310.76C406.886 316.291 395.383 325.955 391.544 329.629C384.361 336.507 376.822 344.946 368.375 350.128C359.994 350.33 351.61 350.259 343.234 349.916C336.863 355.404 326.361 366.524 320.184 372.699C304.858 388.252 289.309 403.582 273.541 418.685C269.712 422.318 263.196 430.541 258.445 431.36C251.588 430.252 249.794 424.855 254.367 419.886C262.968 410.539 272.272 401.559 281.271 392.592L333.814 340.234C332.374 326.793 331.458 316.888 341.721 307.089C351.187 298.051 359.96 288.261 369.964 279.641ZM345.947 320.144L345.897 337.96C351.913 337.894 358.816 337.677 364.745 337.913C368.499 336.479 380.543 323.657 383.894 320.232C365.931 320.206 363.998 318.719 365.822 299.956L345.947 320.144Z"/><path fill="#FF7502" transform="translate(-85 -245)" d="M252.682 396.29C257.292 396.04 259.946 397.182 261.925 401.323C261.626 412.865 233.819 406.669 235.928 428.139C236.73 444.369 254.973 452.566 267.177 440.878C272.388 435.887 275.779 422.317 282.182 421.998C287.893 425.802 286.587 431.08 285.468 436.71C278.338 457.334 254.514 467.071 236.46 454.159C229.326 449.05 224.504 441.325 223.05 432.672C221.692 424.275 223.764 415.685 228.802 408.83C235.143 400.323 242.701 397.664 252.682 396.29Z"/></g></svg>