<?xml version="1.0" encoding="utf-8" ?><svg xmlns="http://www.w3.org/2000/svg" xmlns:xlink="http://www.w3.org/1999/xlink" width="259" height="260" viewBox="0 0 259 260"><clipPath id="cl_3"><rect width="259" height="260"/></clipPath><g clip-path="url(#cl_3)"><path fill="#ffffff" stroke="#ffffff" stroke-width="3" transform="translate(-54 -53)" d="M178.275 104.067C221.231 101.341 258.302 133.867 261.187 176.812C264.072 219.757 231.684 256.949 188.75 259.993C145.59 263.053 108.161 230.457 105.261 187.287C102.361 144.116 135.094 106.808 178.275 104.067ZM184.775 256.669C225.979 255.827 258.678 221.705 257.767 180.503C256.855 139.3 222.678 106.658 181.477 107.64C140.374 108.619 107.827 142.696 108.737 183.8C109.646 224.905 143.669 257.509 184.775 256.669Z"/><path fill="#ffffff" stroke="#ffffff" stroke-width="3" transform="translate(-54 -53)" d="M266.426 97.2563C267.396 97.3456 267.411 97.257 268.131 97.8733C268.291 98.3465 268.471 98.9436 268.251 99.4316C263.35 110.282 258.042 121 252.902 131.75C252.479 132.635 251.654 133.886 250.857 134.414C248.965 133.773 244.192 127.771 242.482 125.812C238.979 122.106 234.98 119.375 231.664 115.679C231.065 115.011 231.233 114.863 231.344 114.173C232.994 112.477 263.999 97.7312 266.426 97.2563ZM235.839 115.274C239.172 117.065 241.23 119.485 243.877 122.175C246.042 124.402 248.465 126.909 250.309 129.393C253.574 121.909 258.366 111.021 262.157 103.413C262.117 103.284 262.076 103.156 262.036 103.027L261.789 102.977C253.216 107.238 244.565 111.337 235.839 115.274Z"/><path fill="#ffffff" stroke="#ffffff" stroke-width="3" transform="translate(-54 -53)" d="M169.635 262.916C173.783 262.955 178.316 263.555 182.671 263.647C186.983 263.739 193.925 262.944 197.754 263.637C197.036 266.691 195.453 270.75 194.404 273.791L188.181 291.692C187.322 294.011 185.245 300.532 183.532 301.71L182.849 301.532C179.06 297.535 171.763 271.774 169.358 265.257C169.131 264.641 169.44 263.533 169.635 262.916ZM183.011 295.317C183.81 292.312 184.699 290.353 185.746 287.478C188.012 280.64 190.735 273.727 192.757 266.877C187.801 267.187 178.631 266.987 173.634 266.649C173.349 268.411 182.142 290.456 183.011 295.317Z"/><path fill="#ffffff" stroke="#ffffff" stroke-width="3" transform="translate(-54 -53)" d="M98.3654 97.7573C104.824 97.3999 125.16 109.446 132.248 112.2C133.086 112.526 134.972 113.745 135.268 114.725C134.494 116.492 127.211 122.604 125.063 124.745C121.621 128.362 119.218 131.466 116.11 135.379C111.998 130.488 108.144 119.393 104.9 113.539C103.179 110.432 98.3171 100.913 98.3654 97.7573ZM116.587 129.438C118.705 126.39 119.837 124.857 122.468 122.264C124.857 119.93 127.805 117.103 130.503 115.161L111.615 106.421C109.353 105.374 106.134 104.101 104.035 102.994C104.058 104.147 115.236 126.835 116.587 129.438Z"/><path fill="#ffffff" stroke="#ffffff" stroke-width="3" transform="translate(-54 -53)" d="M182.818 62.1911C183.511 62.4973 184.509 63.3768 184.726 64.0424C186.334 68.9794 198.083 97.8323 197.35 100.534C195.664 101.264 186.529 100.532 183.746 100.505C180.526 100.5 171.498 101.52 169.577 100.61C168.633 98.01 180.545 65.0489 182.818 62.1911ZM173.74 97.5619C176.554 97.2287 179.873 96.9231 182.711 96.9296C186.3 96.9027 189.542 96.8496 193.129 97.1147C191.975 93.889 184.438 71.7208 183.168 70.2015C180.409 78.1622 175.746 89.6982 173.74 97.5619Z"/><path fill="#ffffff" stroke="#ffffff" stroke-width="3" transform="translate(-54 -53)" d="M100.524 167.862C101.015 167.849 101.138 167.913 101.626 168.011C102.667 169.424 101.456 180.482 101.454 182.888C101.453 185.366 102.777 194.74 101.905 195.957C98.9768 196.863 80.0877 189.257 75.869 187.677C73.2229 186.707 65.7137 184.357 64.0214 182.736C63.7556 181.154 65.3739 180.237 66.7061 179.809C77.7276 176.27 89.5111 170.938 100.524 167.862ZM70.407 182.503C73.1048 182.956 77.2474 184.203 79.8076 185.242C85.8893 187.606 92.6229 189.48 98.5238 192.211C97.9886 189.006 97.8443 175.954 98.4898 172.985C98.0423 172.7 98.2548 172.721 97.888 172.766C92.6634 174.434 87.4628 176.211 82.2978 178.053C78.5293 179.397 73.9585 180.72 70.407 182.503Z"/><path fill="#ffffff" stroke="#ffffff" stroke-width="3" transform="translate(-54 -53)" d="M115.261 230.029C118.098 230.304 123.493 237.897 125.97 240.275C127.663 241.9 135.126 247.803 135.29 249.249C133.629 251.98 116.875 259.055 112.846 261.021C110.136 262.287 101.413 267.544 99.0218 266.765C97.9249 265.442 98.5155 264.259 99.1835 262.779C103.443 253.344 108.291 244.18 112.44 234.686C113.202 232.941 113.967 231.455 115.261 230.029ZM114.519 256.383C119.698 254.126 125.181 251.413 130.322 248.988C127.039 246.681 117.522 236.041 116.361 235.476C115.474 237.002 114.721 238.587 114 240.197C110.857 247.224 107.232 254.072 104.514 261.281L114.519 256.383Z"/><path fill="#ffffff" stroke="#ffffff" stroke-width="3" transform="translate(-54 -53)" d="M264.713 167.778C265.076 167.827 265.439 167.884 265.8 167.949C269.059 168.539 277.588 171.766 280.839 172.985C284.87 174.496 300.544 179.312 302.542 182.221L302.437 182.746C300.379 184.436 294.405 186.382 291.687 187.389C287.772 188.755 266.94 196.73 264.55 195.983C263.515 193.93 266.027 181.466 265.022 177.763C264.611 176.25 264.272 169.092 264.713 167.778ZM267.923 192.356C272.446 190.121 283.188 186.452 288.16 184.784C290.871 183.757 293.593 182.761 296.327 181.799C289.666 180.01 284.481 178.304 278.024 175.819C276.404 175.195 269.668 172.62 268.185 172.285C268.64 176.692 268.608 187.977 267.923 192.356Z"/><path fill="#ffffff" stroke="#ffffff" stroke-width="3" transform="translate(-54 -53)" d="M250.353 229.757C250.785 229.827 250.936 229.91 251.349 230.058C253.18 232.537 267.849 263.798 268.021 265.885C267.57 266.761 267.904 266.476 267.024 266.81C264.36 266.583 257.615 263.094 254.632 261.725C247.973 258.625 241.23 255.487 234.588 252.338C233.46 251.803 231.511 250.558 231.121 249.306C232.218 246.842 238.25 242.989 240.864 240.329C243.405 237.744 248.298 231.206 250.353 229.757ZM252.766 256.746C256.17 258.394 259.723 260.057 263.083 261.767C261.303 258.244 251.021 235.773 249.833 234.945C245.484 240.594 241.448 244.772 235.744 249.051C241.481 251.473 247.157 254.039 252.766 256.746Z"/></g></svg>